<mxfile host="Electron" modified="2024-02-12T04:20:35.469Z" agent="Mozilla/5.0 (Windows NT 10.0; Win64; x64) AppleWebKit/537.36 (KHTML, like Gecko) draw.io/22.1.2 Chrome/114.0.5735.289 Electron/25.9.4 Safari/537.36" etag="mzEbSif7UQ7oE6lhAabU" version="22.1.2" type="device">
  <diagram name="Page-1" id="PzDN8sjDdB53nRi_vWXE">
    <mxGraphModel dx="1098" dy="1172" grid="1" gridSize="10" guides="1" tooltips="1" connect="1" arrows="1" fold="1" page="1" pageScale="1" pageWidth="850" pageHeight="1100" math="0" shadow="0">
      <root>
        <mxCell id="0" />
        <mxCell id="1" parent="0" />
        <mxCell id="0rVqEpUzt8lyCxF0MDS7-1" value="" style="endArrow=classic;html=1;rounded=0;" edge="1" parent="1">
          <mxGeometry width="50" height="50" relative="1" as="geometry">
            <mxPoint x="400" y="620" as="sourcePoint" />
            <mxPoint x="400" y="560" as="targetPoint" />
          </mxGeometry>
        </mxCell>
        <mxCell id="0rVqEpUzt8lyCxF0MDS7-2" value="" style="endArrow=classic;html=1;rounded=0;" edge="1" parent="1">
          <mxGeometry width="50" height="50" relative="1" as="geometry">
            <mxPoint x="400" y="560" as="sourcePoint" />
            <mxPoint x="450" y="510" as="targetPoint" />
          </mxGeometry>
        </mxCell>
        <mxCell id="0rVqEpUzt8lyCxF0MDS7-3" value="" style="endArrow=classic;html=1;rounded=0;" edge="1" parent="1">
          <mxGeometry width="50" height="50" relative="1" as="geometry">
            <mxPoint x="450" y="510" as="sourcePoint" />
            <mxPoint x="580" y="510" as="targetPoint" />
          </mxGeometry>
        </mxCell>
        <mxCell id="0rVqEpUzt8lyCxF0MDS7-4" value="" style="endArrow=classic;html=1;rounded=0;" edge="1" parent="1">
          <mxGeometry width="50" height="50" relative="1" as="geometry">
            <mxPoint x="580" y="510" as="sourcePoint" />
            <mxPoint x="630" y="560" as="targetPoint" />
          </mxGeometry>
        </mxCell>
        <mxCell id="0rVqEpUzt8lyCxF0MDS7-5" value="" style="endArrow=classic;html=1;rounded=0;" edge="1" parent="1">
          <mxGeometry width="50" height="50" relative="1" as="geometry">
            <mxPoint x="630" y="560" as="sourcePoint" />
            <mxPoint x="630" y="620" as="targetPoint" />
          </mxGeometry>
        </mxCell>
        <mxCell id="0rVqEpUzt8lyCxF0MDS7-6" value="" style="shape=image;verticalLabelPosition=bottom;labelBackgroundColor=default;verticalAlign=top;aspect=fixed;imageAspect=0;image=data:image/png,iVBORw0KGgoAAAANSUhEUgAAAgAAAAIACAYAAAD0eNT6AAAAAXNSR0IArs4c6QAAIABJREFUeAHtfQfYLFWV7SInySpBMkiSoAQBQbiAgphQQDGBZEHAAdTBhw7qiGQVEARGSQIKkkEUxBlwUJ+IgCA5CJKVLBnR92pduv7bt/8OVdWnqs7eZ53v+7/uv7v61D5rxzphb0CtDQTeAGA9ANsDOBDAtwCcCOBHAC4GcCWAawHcDuBBAM8AeBXA8wAeBXA3gBsAXA3gZwB+AuAkAEcDOAjAHgDeDWApADO1MUDdUwgIAfMIzAhgiczObJrZnd07toU2hraGNoe2hzaItog2ibaJNoq2ijaLtos2jLaMNo22jTaOto42j7ZvOwDrAljQPFoagBDoQuCNADYAsENHcc4CcF1HMf4fgKb+Xu4o4U8BfAfAngA2B7AsACq4mhAQAmkj8CYAUwDsCuBwABcAuBnAiw3aKdrDJwFcA+CM7L5fBfAJAGtndmvetNmj0VtAYOmOsz8le7L/c8OKUzWYeArAJQA+D2AtzRZYEDPRKATGQoBB/+oA9gZwbjZb+Fcjtuo2ACcA+DgABixqQqBVBJYDsDOAHwL4ixElGhUo/L0zrbc/gHWymYuZW0VYNxcCQmBcBKjDfIr+QmcKnkH/KDtg4XsuOZwM4NOdpc5xcdLvhcBQBGYDsFVneoprWxaUZFwan8v2KlyeTc19DsBCQ9HRl0JACMSCwMIdnaXuPpuIrbq/8zC2JYBZY2GE6LCNADfQcTMdp/WfTkSRBgUN3NhzRTbbsaPW5GwLtah3icB8AHbq6Ch1dZAep/A5Zzm4UfFdWtZ0Keu1D4o79I/p7GpNQWHKjvElAOcD+AiAOWrnhm4gBIRAPwTmBLAtgAsBcLNvWT1O4fpHOqejeNJATQgMRGClbOro4GxN6V4pUilDwn0D3AfxHp0qGChb+kIIhEKAm/jeB+DMhKb3QwUq3JxNG09bryYEpiKwYbZJ5lI5/VJOf5BC8swvN0ZqDU7KJQTCIsA9SLsBuEu2Koitos2n7VdLEIEZsuQV3CzyWylTEGXqDQge6uw6njtB2dKQhUBIBObJzuPzVA6nsnv1TP+Pjwl9AH0BfYKacwT4ZMpNbLdKmRoxJtw4ySk3nSBwrlgaXnAEuJP/UG0+bsROMZCiT6Bv0OxlcFFuv0M+iTLZTSrH92J7MmBGMSbxYO4ENSEgBAYjQB1hqlxutI1Nj1Oghz6CvkKzl4Nl1Mw3s3SY6SX5hXUF/CeA0zIDt4gZCRKhQqAZBPjET92gjljXcw/002fsB4A+RM0gAptlR2SYPtKDMHobA08OfFHKZVCrRHJoBPKHFOqENz33MB4uDTCfgJoRBJiTn+diPQif9zHc0Tk+aES0RKYQCIoAk4xpP5INW826CUsG5b46C4oAk2J8o4UKVt6ddBPjY5lQVidUEwIpIEBHcp4eUsw9pL3QKWE8ewpCammMH83SYDIXdBPOSveoB2duevomgLksCZ5oFQIlEKDjOBAAHYnsiF0MmFCIRwfVWkaAO2avlDK5MiYPAPhQy3Kl2wuB0AhsYahMuIKTYsHJZapEGFpNivf3iWyXpjbOFBNUiwp9HABmP1MTApYR4Lnyb2dP/v/Sg4qrB5XcpvK0wNaWBdQa7Vzr/4GUyaUy5UqVv/4RwPLWBFT0CoEOAtzXcq1sVRK26vgscZP2BtSs+qtkFehukUIloVB5EMB65tvVLFfqXgiERuDjmqFMyk7RXt2kQkOh1Whaf7tq80xyCpUHAXw9VRsEpymD3kWLAGcoWYu+W3b1Ph08ns82pO8UrXQaJIzFMH4shZJB6SR2Ws2gDIvkNBBYVef6Zac6vorlmpVOeEy9XxPA3XL+UqouGWBdgd3HlCv9XAiERoAySdnU074wyGWApZvpw9QqIMCjYFIoKVOuTL2vxwKYsYJc6SdCICQClEGeWOmVT/0vTCgD9GE61lxS47je/6qUSkZlhAyco6OCJTVLl4dEgMdUmSJWzl4YDJMB+jL6NLUCCDBT1jAw9Z3w6ZYBJoLiPhE1IdAkAvMCuEq2Sra6hAzQt6kNQIBTad8rAWa3E9D7tIMC5gtQieEBiqWPgyOwaOfIl+xO2nanCv/p47R02aOSmkqTIlVRpu7fMD/3m3vkSv8KgdAIrAjgL3pQ0ZP/GDLAZSNlOe1opqbS5Py7Hfk47/8GYO3QFl/9CYEOAusBeHwMwz+ObOu3vuwkl4/o+5JunLa9UQqlaDqgDDwHYPOktUqDrwOB9wNgkhc5YmEQSgbo+5JduuTAOW0bCkz1IyxzGXgFwAfq8ALqM0kEWOxFp5JkX3L7EvKVPjC5IIBTH3ryl0KFVKTevlhzff0k3ZUGHRKBjQC8pAcVPajVKAP0hcksB3Dzg47PyPn3Ouw6/n8SwFtCegP1lRQCTDv9dI2Gvw6ZV582bSt9ovuNgTz+oMQZNgXUqmF5ICvOsnhSbkuDDYHAklnylofk/PXk36AM0De6PiKoc/5y/m0EErcCWCCEV1AfSSCwIIDbGzT8beiE7hmnLaaPdNmU4S9OgUvFEPwWAEu1qgmBYQhQRn4n568n/xZlwF3GQOZBTsXRaJzx8vqnAGYeZv31XdIIUDYula2SrY5ABtzUDmAlJB2hidcpphawnJK0i9PghyFA2UhNHzTeOHlOn2m+iiBrIaukb5wClrLiHzDMC+i7JBH4kpy/gp/IZIC+kz7UZJsbwF2RAZqy09PYpwVijK43MKlVIroOBJgv4h+yVQoAIpQB+lD6UnPtzAjBlBOc5gRTx4LHA7nbWy1tBHg65H7ZKjn/iGXgDGsqulPEYMbu+F4G8FgnTTIzRP0awM+zhDbnALgYwJUA/gDgDgAPA2Du+9jHFCt9l1hTLNEbHAHqVKzyGTtdtD20QbRFtEm0TcSTtoo2i7aLNozpbmnTaNtiH1Os9O0QXPJr6nAlFc0YKeT/6pwzvhDAkQA+A2CTTsKaGSrwZX4Ab8+WXD6Z/fZrWVlczr78XvsvRvKByr5vBbz1Ex8IkPexGvxY6OI6NG0JbQptC20MbQ1tTtlG28akXLR1tHm0fbSBzLlAmxjLmGOkg8HWCmUBb/r62QHcJEZOEuR/ArgewFFZRPxhAK9viDFMLfnO7BTGV7K8+FdotmASX6joLBykEsINCWREtyHPyfsYjX2bNNHR0FbQZtB2NJWeljaRtpE2kraSNrNNHGK89w0N8qOSqh4vpk0I7bMATs+E+YMRFXqYBcC6mRAdAuBe8WqCV/dExKNKiqcflUKAhVdUiXSag6UtoE2gbaCNiKGRR7SdtKG0pTE65DZoOiYG5vSjgSUz2wAkpnuyatj5AD4CYI5+IEX2GRWeETfX8WLCsQ1afhIZb0ROfQhwjboNGYvpntR56j5tQOyNtpQ2lbZVlRmBLWNj2FIAnkpYqbiGxcxNVks6sgAF1+W4gSfltTg32bdiMxAR0ZNyVlLq9kUdXbdadIY2ljxMuVbDEwAWi0incFmizv+abM/DVs4qOLF87g8TPRfNIPYNMSmWaAmKANeZWSI6pifxJmjhXodTAawcFM12O2MAQ9tLG9wEhrHdI5oTTJyOiA2cuum5HMDG7cp/7XdnOdTvAnghMf6eVDuyukFbCHw/MVnmhr7vJFAOm7aYNrluux9b/+9rS5Hy+3LXf0qbaXimdcN88Im8LgqAiShiE/666OE06TqJ8DalYXLXfyo7yynDpwFYKCUGd2wzbXRdtiG2fu9u+1RAKiV+OTW8F4CZElOo7uEydS6PocSmBHXQw6QmVtdIu3mm968hwPPnqUwVX5c9Da+XMONpo2mrU9mT9uW2eM0pYu/Tw4ykOW2odeHXpIxOcfdMwR5PIBDYrS3F0n2DI7BzAvJKnWRyHQWur4kPbTZtN214HQ8JsfT5fFtLPOc6B5ZLGylH0sOsMPOnn+ec/zSoHKeabQTmA/A357JKXZSs9pdT2nDvy9Q81tpoe5dzheKZcKtH+poUhD2cpxtmYis12whwI2ssT2uh6WCaXuqg2nAEaMtp00PjH1N/mw6HINy3zBR1q1MwuaShqd9ysrIagNucygM3ja1RDg5dHREClE2Wfo7JUIeihTrH8akVR4C23euy9S0AZi4ORfUr93OqUDcDWKU6LEn/ck4AJzuVi6uT5qztwf/SqUxS16hzauURoI2nrQ8ViMXUD31zrW1up7srfwZgrlqRS6PzvZ0etZqSBvtcjZIpbmMyziFo4YwUd7irjYcAbT3LFYfgSUx98OQDfXRt7fMOQWOGrEamTmrjSlwdf9Rh3W9mulSzhQBT3sZknMelhTnwt7HFgqip5VI2M56Oy5fYfk8fXUubFcCDzgA7uBak1CnrCjzjTFbeJraaQYDprD0d/3oawEZm0LdDKPNDHOHMTtFH01cHbzs6AkpTacHFY1KHb83OJT/iSGbOmjRCfRArAiwhG9uTWVV6aNBXjRVoJ3Rx7dxTwEhfHbQxUvKy85/O/+NB0VFngxBYBgBrjVc1fjH9jrvJlxs0UH0eDQKsTPoPJzJ3V7a5dolokPVNyKcdBQH01fTZwZqngj/aRBNMLAp1xIyRXoKAEwuNWBe1icBxjpx/VCVf22RqQ/f2dMKNPjtY+60TpdKafzCRKNWRlyCAG7EWKTVyXdwkAix+w+Q4Mc0cVaGFT/5y/k1KzrR7edkTQJ8dpLH6XRUhju033O2v1h4CXoKAw9qDUHcegcAhDmyVnP8IJtf8NafOvZwOCFK59lIHSsVz/jrqV7PmFOie65nW83LzdIPSRBdgdsOXvM7ByRM5/4aFZsDteETQQ54A+u6x2koOnD+zPinJz1hiEPTHHoKAXYIios5CILC9cVsl5x9CCsL1QZ/hIWMgfXjlxjXz2Kbyy9DDvM9K71uZ/bX90HoQcFVtyKjjqghcbthWyflX5Xq9v6PvsF47YKx9b9ana1XYp14FGad3BgH3GDXaPDO8+DiD12+DIrCw4aI/cv5BRSF4Z/QhZR46Y7uWPrxSs55Lm+Uf1eJGgE7UahCwf9zQJkXdvkaNtJy/DTG1XkqYvrx0O9qoUjECY9SjjVqlWd7KD6wGATe1gpZu2g+B6wzaKjn/fpyM8zP6Esuz4fTlpdpMhtO4MtPfeqVGq4vbRoBBwN0GjbjqsbctOYDFjcpy/u3LTVkK6FOspgtmSnb69MLtXQaNcb728l+FR6kLY0KAiU+sBQHKCdC+BB1kzFbJ+bcvM1Up+L4xWct9Il/p0wu3k4wO9AkACxYepS6MDQFrQcADoXNux8aQyOlh0hZLaabl/CMXqBHkvQHAU0Z9I316ocZSglYHuXuhEeqimBFgEEBD2R29xvx+SsxgOqdtA0NyIufvQxhZSyZmezSINvr0QmWCrRb++QOAGX3IWPKj4LGu640oGovPqLWDwJFGZISyTJlWs48A19JvNCJ3vcFAoQJBFvMgc3PGOvZla+gI+LRTaiPH0N7i/3JuAFcYUDSW3lRrBwELu/+ZoIhpilNptFG0VZ6b1fo49O0j2/0GjG5vZHPRyFHZvuCTnUQnZyYWBDAnN8fcy+/Y/mcVOrVmEZgfAE/8xCYL3fSwABllOJVG5099fTVbxqPN8twsZp6kbx/alopcobqVq/v9+kNHZfvL3Pnn400tCOBGr9hLdG5rW8RMUh/7UiVPJ6TUcuef2ynvQcCmRn0lffzAZrGgxm8Gjsb+F73OP1euHyU2E0BO7hPxOdwT7IuauREcFakBpuNLbTNyr/PP7ZT3IMDCElTOi/yVPn5gs3j8r9DGhoEjjveLT42Y4kwxCOCT9ssRGv474hUjt5TFuBGLhWM+6Bbx/gMb5Pxzh+M5CKA9ysdp5XXocUBLx68I+G1Oz2GPcv65sP04wZmAjSOt+75of/uoT2tA4PURzgY9BqBSzvUa8GmqSzp/Pojk9mjQq9cggOO3VsuEPr5vowEbxMBYP9+170hsf1jU+ec8STEIWB3AQ5HJ6ydsi50p6reOjPd0AsubQnB8Yos6/9xOeQ0C9o5MFnO8h732fVj5mLGBvAhgnvHlOKoeyjr/nMlnJTgTsGRnBijHoO1XpglVawaBYyOyVcw/ktopkLLOP9dNj0EAM8++EpE85lgPe6Wvn9S+Z2wQ50wage0Pqjr/nNEpBgELAPjvSOR24NSabbGMkvpbIuH5hYmd8acwVHX+uZ3yGARcEok85hiPeqWvn9RiUapRxOfff3jSCOx+sN2IDX/5mEe9ng1gZrswVKKc2R+/GMnmQJ5NV6sXgdkC6cooXRr2/bPZEpTH5cdRnBvX+eeYegsCPm4sAKCvn65xKt1SqUPmNaYh8NBCOf9cuVIMAigHbwXArHw5Dm28prYJrA39W7VlHvPY8bJtDLzle9L5c79RKL3yFATMCeC5gNiEwnhQP/T10y2fr2WIeA7qBy0rQ6jbh3b+OcNTDQLmANDm+vAOoQRD/QxE4KMt2Squ8x6Q4F4bMiK088/tlKcg4IyW5DLHsuwrff5EszaFsdkE5Xbf1OX8c0H4SYLLAbk0vDdLxvJoCwp5aE6AXmtD4MAW+Mop0zVqG1HcHdfl/HM75SUIYP6HfEwWXunzJ1obSlUVpH9kqWHnmqDc5htmY2oij3nKQQBrd1/csFJeYFMcTVEdchp6lA3iVCkzDs5uCqFwxNbt/HP8PQQB8zZk03PMxn2lz59opzdsKMch/poJqm2+acr55xjztERqGwO7JYNpWZ9vSL6ZmEqtXgRuaIiXDwBgvvdUG50/TxbldqTuVw9BgJUS5uQlff5E+12DjB5XkFgD3Gpr2vnnWKceBKwAgOe1czzqeuU6ccrBVt16ycJQTLdbF//yfllwa766BxNx/007/xx360FArPUpcny7X+nzJ9oTDShV983HeW8113Zbzj/H+tzEnRPLsh4MgEtIOSZ1vKaWEW7CiDTwpu5qpdw3knplx7acf66LloMAHk3PxxH7K33+1MZkKrETm9PHNTnSa6217fxz/FIPAig3dNDn1yjzH7AmnIbo3aImvvFc/1cTTOrTy/q2nX9up6wGATHWqMgx7fc61Zfy7HK/L2P8zOIa66cj2xxyXuIzAbnR2wBAHUtfTEqkVg8CLAkd0i5xyYbHRt9YD7mmeqXz5/HhkPiO05fVIOD2iDAchf/UvCU8jjbqwli+t7bLOjbnn/ORQQCnxNUAnisPWdGL64Bq9SDAJZxchsd55Uwind1y9ZBprlfuW4nJ+ee8tRgEMD10Tn/sr/T9sHQE8DBDqhWr88+FktPgCgJeE6hZAfDpMsRemFMNyag1Uo8PYFxZO2K6JCjWQAhMb6zOP7dT1oIAblLPaY/9depRwG8ZInjnwMJfV3exO/9cMBUETC8B3Pl9BICXxtAJPgGo1YPAODkA/pgt+bynHrLM9hq788/tlKUg4DNj2I58vE290vfjREMEv9OAqjEdbBNJfkIJiYKAyULF3eY8Csap4rI4XzW5O30SCIHLKvDjvmyJh1OdLBqlNg0BK84/1z8rQcAmFWQ0H2PTr/T9+JEhgmOvu23N+ecCx70VWg6YZhzzd5wq/mnJgI5Pmmr1IMAkYLnMjnq9GcBnHRUNC4konT+zhI7CMLbvLQQBixvClb6/8XSpVYWKR3Vibladf84PBQGDpWsZAIcX3CPAJ061ehC4c4Rx5a5+Zq/bsJ7bu+jVqvPP7VTsQQCTVVEOc3pjfmWqdFxphNgHI1Y/684/F1KuX2smYLCgMSf8jiOyCj49+Of6ZkwEHhtgq/6SJXj6MoDYZwjHHP7YP7fu/HM7FXsQ8PgAOc3pj+WVvh/XGiGW5ytjbHQIltb8RwmfgoBiUrYOgB/22TDIfQNaby6GYdmrurM4EuefA2BmUJ5hVxuOgBfnn9uvmIMAzgLmdMb8St8PK4kLrhsu3618683558J6kWYCCssTs399CUC30qecR74wcCUvnLtjVPl0xZMay5b8fcqX0/mzHkiu315eYw0CWD7aAsZTH6o5tW6B2F9FpsFenX8uCwwCeD5erRgCfOrn0+jlAJYo9hNdVQIBlltlSu1US/OWgGq6S706/9xOxRgElNmsmo+jjdepy+rPGAkALp1OrNv9x7vzz4WRU6xztQu17i4EhEBFBOYAwEA+12evr7EFAUw2ZQFr+n4QPAvEcgorhsYa4Z7W/EfxnvnyF4wBeNEgBIRAYQTmB/BrI7Z9lA0q8j39GOt7xNAuMYI7McPzRoglqDE071Nq/ZSNa0VLxgC+aBACQmAkAosBYB6Efrrs9TMm7oplMyiXAS3gTN+PvxohNqYMaykGAQ8BWGWk6dEFQkAItInASgDuN2LTQznJmJw/ef8bI/g/SmLvNkJsbKcAGAScawS7UIr2FAAL6ZjbNMC6txBoC4H1CiarCmUPYugnNudP3t9oxC/Q94OpS2Ng5CgamAUstpZiEPAigC1jY4ToEQKJI/B+AC8YseWjbH3R72N0/hRDKw/VN5DYq40IzSORKniKQQA3j+waKT9ElhBIDYGdDG3mLurcR13HPPaxrPn3yhun1kfRH8P39P1Ts2nFQMwoGp7rRTmi/1MMAsivr0TEA5EiBFJE4AAjzmaUfS/zfczOnzJIX1VmPG1d+zMSa6kq1AIRaziDgPOMMD6kwB2r1LcRS6VI84oAE08dk6C9id358/hlSPtaZ1/0/TjZEMHMvx5zSzUIoCDNFjNjRJsQcIQAM3Sebchuh3JisTt/itjbDfHlJBJ8tCGCP2lAiVMNAv4HwDwG+CMShYBlBFgTwUqmuVCOn/1YcP6UK/qokOOusy/6fhxkiOCvGdFcltRNcTngegALG+GRyBQC1hCgblHH6nQKMfb944g3/PXKEH1UjBj2o4m+H3sYIpjHPqy0VIMAntZ4lxUmiU4hYAQB6hR1q58h9/yZJedPUaKPssKP3UkwBcsKwb83oqw5mQwCzjeEbyg5YK2Eg7PZJS6HqAkBIVAdAeoQdSml+iO5HbLm/Mll+qic/thfWddmao732AnN6WMSGmubzVINAsgzpsRUadzqxl+/TBsB6o6VtLK5jQ71atH50zfRR4XCoO5+ptpmHid5yRDRFlPRphwEPAlgq7TtuEYvBEojQJ2h7tTtBGLs/yxDa/7djKVvihHPfjQxUKHvn9puMUS41eQzKQcBFMDjAMyeC5xehYAQ6IsAdYS60s9op/CZVedPZtI3WeERq0VOtAsNEX7FBNX23jAIuMAQ1qGFmUUyVrTHNlEsBBpBgLphpZBMaNvA/iw7fwoIfVMduNTRJ/3QRDvCEOFMs0hHarWlHgSQfztYZZ7oFgI1IUCdsJJCtg6HZN35065b4t/h3XK8m6EAgMK3bjfxBt+nHgSQh2cAYFITNSGQMgLUAepCHU7VSp/MahhrYZ+iskmfZAVv0jldMbcpxog/pChXIr5OQQBwF4A1IuaRSBMCdSJA2acOWHIcoWn14PwpI4ca4yN9/kR7kzHi752g3PYbBQHAywD+zTYbRb0QKI0AZZ6yH9qhWuqPzt9DrpAZsmXN+4zxkj5/uvZXYwOwvgyQg88gwNImzLoMzK+ypEmr5aDoVQg4RYAyTlmvS4+s9OvF+VNM1zfGT/r6Se1cY4M4atII7H6gIOA1g/gqgO9mBapYUlNNCHhCgDJN2aaMW3HSddHpyflTRq0d26Svn9T2NiaYD3cnMpg0GnsfKAiYZhgfA7CLM/7ak0hRHAIBJluhLFOm63Kolvpl6XAP0/65bHAs1nhLXz+prW5QQDeZNArbHygImN5IXgtgHdssFfUJI0DZpQxbctB10urN+VO032uQv/T1kxoj1aeMDebiSaOw/wGDgIuM8aFOo/GvrJ7AyQDeaJ+1GkEiCFBWKbOU3Tp1w1LfHp0/xflyYzymj59IAdyrj3SoloSKCvaW3kE4+F9BwGQ5fLpzWsDT9KEDUdUQuhCgbHJ3P2XVkh2tm1avzv+tBvk89KH5CwYH9MMuBfT0VkFAfyPKHNYbe2K0xuICAcokZbNuZ2qt/3Ocrfl3C+uPDPKbPn5gW9vggP7RKWk8cFCGv5hVywEDDSp3Ei9umLci3QcClEHKojXH3AS9np3/0kZPdNDHD2ycwnrWoDDzeI3XxiDg5wZ50oSBeR7AfwCYxyvzNa5oEaDMUfYog03IurV7MLeJ5+W6Yw3ynb59JE+sbWqgYrwAYNFoTcX4hM0F4HcGBa4po/UMgMMALDI+1OpBCAxFgDJGWaPMNSXf1u5ztfPS3/Q19DnW+ELfPrJ9zuDAyAgW1PDcFgRwu1HeNKUoLwH4PoAVPAuCxtYKApQpyhZlrCl5tnifPwGYrxUONXdTq8Wb6NtHtoWNrm1QWTYYOTrbFyyZVXF6SAZopAH+Z5ZW+HzlELAt7JFQz7P8lCXKlEWH3CTNf8mCpEk55iPhYygy6GOaxDTUvZiBcqGiIFxhdJA3DDvjWHTwkV+3isF8DaGEuEo/VwHYInKeirz4EKDMUHaqyFyKv3k8gZk3np+nj7HIX/r0wm0no4MkY3YvPEq7F74TwIuGedSGAt0E4FNFNsHYFQtRPiYC3CBFGaGstCGjVu/5XCKzbfQtVnm0Yxnd4BqO1VKVjEQXKDNYo9duaXippk0l4jQl18K4sVJNCBABygJlgrLRpmxavDePYacww0afQt9ikUfctzJvWVW3XKL2vLKDNXr9rkYFMgYlojL/J4CljPJeZI+PAHlPGbBq2NvWI2Zi3W58NpjogT6lbbyr3p97WEq3bQ0PmEDtUXrENn/wFeN8qirUIX/3m8wJ7KV6AzYVoCTVzNNPXpPnIWUoxb6GZpUryZeYL6cvsczfj1QBd06jSYFyRnGNfLUqAzf4G4tJKXI+xfTKnbI8K/tpJRcyqAWDSWbSHvKUvCWPY5I5q7QcORhuV9/Qh1jeb/X3LG/FHFU5cqZxZbkNAAMZ7427U1lww6oxiZFuKv252YawrZwnNfGqG7N3eEceWjbgMepFDHw8AAAgAElEQVTG6QBm8Co4XeOi76APiZEHRWkaq1bO+4wPniCxLGcKbTYA/+OAX0UFu8nrmPXtlGza+N0AZkpBmIyOkbzZrMMrZeqrx3ExLTkLlaXQ6DuatDN13Os94zCKT5Z3OQBh73FAMPRbTnVe74BfdShCqD4fzU6ZHJNNJ69nSC68k0pekCfkTSg+q5/JWF6T0OkZqxlxu+WWmWPpw8dquzlQKmbx+uhYKNj5MTM5PuKAZ92CHOv7BwBwOpSnMZa3IyLmKSXWxJzYkwexyocnuojz681LTrEBfAwATzhY59/OxYY7/CpOLXtwKMxrsMnwobr59l1KXdqK8lJPWBp2z2z/ADM2prBOWrfSEENiSUyJrQdbZM2xcOMkk4+l0LjM94oD58+U8awkG6R9yQEgVDquC741CCLxd3KwE55ZM5bd9PJ8+QWZ3O0LYA3tHyikNFzHJ1bEjNjpjH77T6IHFuKc/YvWMn7yrdv2BD2iySxCXjbV8AliGfuyOnIETGuqs87tG89upaQOXZrtSt8fwLoJbaYaJqzcUEYsiAmx8WJnuvlu+f2VIdaRhwlAJN9xWelvTh6angYwd2hcD3cCDpXx3mynMCvreW9LZClOn3TEN8uGtB/tXJbiMaOLM4X9VqeOxabZyRXyzdPyATcicUwcG/Opc6wcM8duNeV4P356++wxAIt6N5LZXpJlne0l4exv8EZB8KSsqQQBPMfuzTClMB6eXb+5Mw3O4Jub3qZ0yq3GGByQpsUAbAyAG4ePyJbbmE78Fp3DN6l/3AT33uBeJL4OORt8vyMbSbtRuOxvWXb8wBFQdCKpBAHHOeNbCgHAsDE+D+DGTp36kwAcnVU5PAgA9+owze0OWfCwDYDNAayfBRGrd55ymAZ3WGIsfkfjwSci/oa/5Tli9sU+2Tfv8c3OPXlvrtOzet4LkjGTjn6QnHGWxntb2mEBqBPqZNoKDneXMwjg9KTnxqxodBiDlF2fp4UNj8UyRejDnT++52eSA2FAGbg2gf0pLATlrfojdXi5uh2Z9fTA/YzcnxMIAlYEwLrd/cavz4SLZEAyQBngJkzOAHlu3P91n0NbeFoTTHuTo6MS3UYvhSCA07jdY9Z74SEZkAx0ywCT4HhunO3lrG/3mD285ywek8A10nhkxwNovWNIIQg4wynvenmp/33qqPhaH1+5x8tzWxwAbbxHGfp8k4xjhqE7nAJ5DwAKitfG86Ee6jt4VGKNyadxtsBXntYYtkHUuj2kTadtt8CLsjTe2saeDe4wLkuoleu9BwHMtObpSKcVuRKdfm2GZd7y6BjTLXttPJ56t2N/xfTFrTQeAbIs+MNo9x4E/Jtj3g3jq77zq7PibTXefqYV79HMTblnzfOM53nNwNj/LjxKwejRq+IxamT06LX9yjHvvMqkxuXX3rTB2194NW6dLIZ3OrZxzL3RekbbrzoGmArpOQhYDQArfbVheHRP4S4ZaFcGWPWOx4M9tkUc71PL9SaKIk1MMuPxWEUOMl89BwHHKABQACQZSFIGmK7ZY6Pzv925TPM0A31vFG0LAMwd3e00vb3nOlJj5ywb5Op8jqpgeZM5jce3TWmTv8wCGbxiXIN2a9Ct3tApMtUmtnXfm76WPjeq9m3nAQCZeh2A10WFehhidk6Ad3UrpfqXs7YkA58KYzqi6mWuzDFek4Ato6+NrjE3AHNIW1KCKrRelhVemTk69McjiJXcUlCcKvzWb/zrdGo8/vV45iLKX9MmX5qA/6GPpa+NsjGHNFMSeleok6NEfzyi1k5gGce7XGp8/m3PuDxmwZi3jmcqovw1bfK42MT+e/rW6Os0fDwBRlBQvh6lGoxHlLdyz7ErtOjzb7Rj4/H3xjMRUf6apbBjw7kOeuhbTTTWCa8DgNj63MUEN4oTyQ00TyXCu9hkSfSkYTPa5PPjABYobg5MXLlHIvaKPtVMY05p5iduU9ibuDfP0L/XDFeKEbpXAnxrQjZ0D//6b43H3jL+fRgAlzSs8aEsvfSl5uo0rOo8S2DOxOcArFXMt5q4aiYANyagVDn/9OrfgIrHr51gmtGEBSpG5AaJ+Bdm2qUvNdl2T8SR/BXAMiY51J/oDRPhmxyDnH8KMsBz4+/or+omP10ZwJOJ2Cj6UNPt2EQYxZzTrzfNqemJPzMRvqXgADTGtAOd06ZXbdP/sbjP/YnYpuNMc6pDPKedzkmEYf8XwBwemNYppPFsInyTg0zbQXrm/zOOMpgya+mfErFJ5wJws2QzG4ArE2HcWU4CAA7jS4nwzLMD0NjSDm6+6MQeMVkZk7ClIM9XAaDPdNXmAfDHRBi4vRPOMVe4jgWmYXRSMKypjfEJAEyP66Htk4jvuAnAvB4Y1m8MrNLEKkbeFZHTbq3Xae7HgAqfHZwAv7zLo8bn3+b04/F/VtD3GH/CXfAvJWCH/tJZeo2RB8FoenMi1ec4jeNhDYcVEFNQvn4GVJ+l6Tg98P0FAEzsZb2x5G0K6/5M0rSidWYVpZ9553l+3oOiDRuDl/W3/0qAV8P4qO/866o3HrvYQQ7gqARsz/MA1ivqPL1ctzmAV5wz92UAqzlg2PKJZNzy5gQ0njQDF2Yo9ZCXhD6COQw8yzF59X4HPqLSED4AgFNVnhnM6SsPOzrPc84nzzKosfm2Mb38PbuSNY7rR8yp8ohzm8Ol1a3jgr15apjS0ftO8yObhzX4Hddxroy9RlT/p+U0PfF7zeDa33yHFzq3N08DmNI8rHHecRUADzpmOKexNo4T+lJU/coxjzw5AI0l3eDll6U0Os6Ld3NuZx52sjQcVHp4bO52x4xn+krr5ztZ+VDORRhIBuKVgc2CWuXmO1sBADfFeZUx+jgvR8SDSwfXfa5xzPwzgiPWbIfMxpXCkRyvxkfj8utYyNsbmjUHwe82S7Yh7g+O7f/vnNWLCS4A7JCZqzynfPxoLag11ymzHMqRCAPJQHwy8InmzEAtd/KcdOxSAHPWgprDThkJeq1G9yiA1xnmGXmTSjUuObn4nJx40p8n9wKY2bBd4VHjfzh9uDjVOG9aEStONx8IgOckvSk9x2W57eeQJ95kTOPxZzeG8XRvywYl2xR3vkObQt91gHG+tE7+RgAeciYcfzeeppMzGN6Pbg4ztvouLecaO7+ZRtby9DKPgseOcVn6HgDAcakFQICbA7mGUpYJMV9/TABc2uzC83pdzHIj2nzZgRD8/HqbhiDAvbk5LgQOsfRxCYAFA+CiLroQ4JLAFxylD2aa4KW7xmftLYs6xaJwokO8SFkGlrJmPLro5aZoL7xjavt9u8amtzUgwIx03PDiQWi40dFyu9YJHzzIksbgwyaU5eNvDRuQWQHc48SGcBwscqfWAALzATjXgeAwQ+DbGsCrrlsw2i1rsHS9MJMMhJOBvepS7gb63ceJ/fiJgyRvDbA7/C12BfCkcSG6PDwsjfW4qKoEKgAyrn+WgxHuMn9jY9oe9kZ8iHvCuOxwIzR9kFqLCHCD4PeNO6JNWsRv3Fv/j3EltuwARHu4J2mLWFp+eDjCsN3gzO1Jxk9yjWv3o/s911+sphHmWjo3OVpsuxhWZItGXzSn7fS7+f9piwYDADctshRu91isvGeqYu5DU4sQATrRnQH8zaBwWU0RPD8AnmiwosCiU7zyIAMvApgnQhtchCSLWV6Za4FVCmcsMkBd0y4CXF/6rrEsgncZThd5kQIABUCSgUZlgJugLba1sgyvnEK3EoT9E8DxABawCHbqNK+WZWNifWwrwraTUYZ9zBDGVmRBdNrR2zZ4tZVRW/FTQ7biagBrGMVZZHchsG523I5PqbFHntd10WzpLdOQPmtIsdsw2LqnHHooGXgGwOyWDESHViY+4xN1KBzq6ofVaKcYxFckj0DgLQBOj7zq1NtHjCHWr88woNh1GQz1G79R98SjU2I1AiPoOixiG8EjlWcZz8syAn59nSPAXajHAeBGmtgMA0tHWmzvixDL2HgreuLTN4s82cyggZgNADfSxYY3TyOcCGA5g5iK5DERWAjAIVn+Zk6pxSKYDEosbjiZJVIFj4WvoiMeHbPMi0cBzDSm3Wvj59tHZGPJf9p8zkgs0gYYumdcCLC8LQWUiTU4FdS2gfh8XPAUpuaECLBrm3e6f/v645kHVquIxlDxj3vArgLA3CXzFrZqujApBBbuVHTihry2DAmPBFpMDLRhi5i1xSvdtz09SRH79Qxa4zVbtgs3Zcu9+2fZ+xY3iJ1IbhGBlbKz+Qe1VH3Q4jofgxZOUaZomDVm8b1uGXigRVs4zq2ZNrdubHr7J1ac4udRcDUhMBYCdGwbADgSAGcGmjjKcsFYFLf347NbUPZe5df/zRtcYV4/5jzBZK0xU+gLDdmEWzubu3mEz+IMqjXeJksvhXpLAEcBuLGm/ALci2BxyuqzDSm7HE79DkcYx4Wxxcpz+9VoD+4AwH1H22bZ+rihW00ItIIAKxJuDeBYALcEnCH4RiujGe+mq9So8HJIcTkk8aNZfiw/nmo2/ms+hXM/Uyg5YV+s/PoJACxFriYEokSAZ15XBcACPwcC+HE2Y3BDhamwRwDweJ2lRqWP8bxvKCOkfsIZdGFZHEvaAmtt8wrO/5Xsif42AFwCPRTADgCYyZWzrmpCwDQCdI5MQrQFgH0AHNwpNMEMVEw/yXLGdwJ4rCtbocUqgVReGXdhIBkIJwPcW2OtXdyxAzx+93TmzO8D8MfOUbwLM1vIpGdcRv1itrfqAwA4wzGztUGKXiFQFwJzGz2vyuBGxl8YSAbCycCedRmZGvvlHiZWZlUJ3RpBVtdCIDYE3qYAQAGQZCCoDHBvjZoQEAJCIHoEGPFzyk9PgMJAMjC+DHBPjY61RW/2RKAQEAI5ApbqfstJje+khGF9GFrNCZLbAr0KASGQGALc2COnIAwkA+PLwL6J2Q4NVwgIAeMIrKMAQAGQZCCIDKxh3BaIfCEgBBJDgMd5npMDCOIA9BQ9/lO0VQxZttZi+d/EzJ2GKwSEQC8Cv1AAoABAMjCWDFzaq1T6XwgIASFgAYEvy/iPZfytPrWK7nAzFixjqyYEhIAQMIcAKyjKGQgDyUB1GWAaXDUhIASEgDkEWBOBVQ3lAISBZKC8DLxssBaIOSMlgoWAEKgPgbsVACgAkgxUkgEWxVETAkJACJhF4Ocy/pWMv56Yyz8xe8OMxXTUhIAQEAJmEThaAYACAMlAJRn4llmtF+FCQAgIAQB7yfhXMv7enmY1nvIzGrvLgggBISAELCOwmQIABQCSgUoysKllxRftQkAICIGlZfwrGX89MZd/YvaG2RIyH0JACAgBywiwNPBLCgIUBEgGSsnAiyoBbNnsiXYhIARyBG6V8S9l/L09yWo85Wczbs6VR69CQAgIAcsIXKgAQAGAZKCUDFxgWeFFuxAQAkIgR+AIGf9Sxl9PzOWfmL1hdniuPHoVAkJACFhGYFcFAAoAJAOlZIA6oyYEhIAQMI/AFBn/Usbf29OsxlN+RoM6oyYEhIAQMI/AogoAFABIBkrJwJvMa70GIASEgBDoIPCcHEApB6Cn5vJPzV4we15HAGU3hYAQ8ITADQoAFABIBgrJwI2eFF9jEQJCQAicK+NfyPh7eYrVOKrPYJwvcyEEhIAQ8ITADxQAKACQDBSSgZM8Kb7GIgSEgBA4Ssa/kPHXk3P1J2cv2LGEtpoQEAJCwA0CBykAUAAgGSgkA9QVNSEgBISAGwT2l/EvZPy9PMVqHNVnMr7kRus1ECEgBIQAgD0VACgAkAwUkoG9ZDGEgBAQAp4Q+LSMfyHjryfn6k/OXrDbwZPiayxCQAgIga0VACgAkAwUkoFtZC6EgBAQAp4Q2FzGv5Dx9/IUq3FUn8mgrqgJASEgBNwg8A4FAAoAJAOFZGB9N1qvgQgBISAEAKwm41/I+OvJufqTsxfsVpfFEAJCQAh4QmAZBQAKACQDhWRgWU+Kr7EIASEgBN4o41/I+Ht5itU4qs9kUFfUhIAQEAJuEJhDAYACAMlAIRmY043WayBCQAgIgQ4C/5QDKOQA9PRc/enZOnbUETUhIASEgDsEnlEAoABAMjBUBv7uTus1ICEgBIQAgIdk/Icaf+tPr6J//JmLh2UphIAQEAIeEaBxk5MQBpKBwTKgAMCj5dOYhIAQwLMKABQASQaGyoCWAGQohYAQcIfADAD+JeM/1PjryXjwk3Eq2GgToDvTpwEJASEwl5y/nL9koJAM6Big7KUQEAKuEFhIxr+Q8U/lSVfjHDzbQV1REwJCQAi4QWA5BQAKACQDhWRAqYDdmD0NRAgIASLwVhn/QsZfT8aDn4xTwUbFgGQzhYAQcIXABgoAFABIBgrJgMoBuzJ9GowQEALvkfEvZPxTecrVOAfPdFBX1ISAEBACbhD4iAIABQCSgUIysI0brddAhIAQEAIAdpTxL2T89WQ8+Mk4FWx2kMUQAkJACHhCYG8FAAoAJAOFZGAvT4qvsQgBISAE/o+MfyHjn8pTrsY5eKbjSzIXQkAICAFPCHxTAYACAMlAIRmgrqgJASEgBNwgcIyMfyHjryfjwU/GqWBztBut10CEgBAQAgBOVgCgAEAyUEgGTpLFEAJCQAh4QuAiGf9Cxj+Vp1yNc/BMxwWeFF9jEQJCQAjcogBAAYBkoJAM3CRzIQSEgBDwgsCMAF6U8S9k/PVkPPjJOBVsXgAwgxfl1ziEgBBIG4El5fzl/CUDpWRgsbRNhkYvBISAFwTeJeNfyvin8qSrcQ6e7djYi/JrHEJACKSNwB4KABQASAZKycBuaZsMjV4ICAEvCHxbxr+U8deT8eAn41SwOcKL8mscQkAIpI3AJQoAFABIBkrJwIVpmwyNXggIAS8I3C7jX8r4p/KUq3EOnungsVk1ISAEhIBpBGYC8LICAAUAkoFSMsBjszw+qyYEhIAQMIvAMjL8pQy/nooHPxWnhg2Pz6oJASEgBMwisLkCAAUAkoFKMrCpWa0X4UJACAgBAHvJ+Fcy/qk97Wq8k2c+dpcFEQJCQAhYRoClTWXchYFkoLwMfMuy4ot2ISAEhMDPFAAoAJIMVJKBi2U+hIAQEAKWEbhLxr+S8dcTc/knZm+Y3WZZ8UW7EBACaSMwG4B/KABQACAZqCQDPD47S9omRKMXAkLAKgIbyvBXMvzenmQ1nuqzGetaVX7RLQSEQNoIfEUBgAIAycBYMrB/2iZEoxcCQsAqAr+Q8R/L+OvJufqTsxfsLrWq/KJbCAiBdBGYGcCzCgAUAEgGxpKBZwAwnbaaEBACQsAMAm+X4R/L8Ht5gtU4xp/FWMOM1otQISAEhACALygAUAAgGQgiA/vKoggBISAELCHAJCZ6+hMGkoHxZeACS4ovWoWAEEgbgRkAPKkAQAGQZCCIDDwOgDqlJgSEgBCIHoHVZPiDGH49PY//9OwFw1Wi13oRKASEQDAEuPN3fgBLBOuxuY5UAVCOy4vjjWUcezanvsHuNC+AuYP1po6EgHEEmBqXkfw2AP4DwAkAfgyABXN+k31+M4AHe47PWSwI8hPNAGgGQDIQVAbONmj7tuvIANOBPwbgTgDXALisY/eOB3AwgH2yz7cAsJSWOgxyWSRPQoBP7u8AsBOAwwFcAoBFcV6tYBQ3n9R7/B88UmGcsTxpiQ7NXsQoA9Qpa40PPHT8ZfB8AcANnQDhQAAfBbAqAPalJgSiRGDRLLr9BIDvdxx9GYEfdi2DBmubf5YvqfDDxq/vyhlP4eUbL+qWtXZYIHvwTwC3ADgWwNbZ6+utASF6/SCwEIBtO1P4dwQS8H7Gez+DkO1SIx79MNJnvp2e+DuNv7satAdLZ8uddN6h+fgvADcCOCqbMdiys1/KIDwi2QICfAqfAuC4bErq1hqEuZ9ycCqMSwnW2g8bwqcfZvosvKEVpvFgero1Y9Chl/UM6pYjBhnXATgSwAYGZ06NstY32TzOximsBxoQ4F4FOckotPe3gFUvdvq/foMrjJvHmHbIYntvCzbhXgAHAVjJImCiuT0EFgfAEpw3tSC03UZ1zfYgqHzn9VrGrBs/vW/eQQnz+jFft7J2tvfDGQH8uUXbwJkBplNeuD0IdOeYEeB5Va5dXwWAa0ttG7LfxQzWENq+GwF2bfNO929ffzzz4Ogh+hfzV/8egW3gKazLs2Bk+2yp4HUxgyXamkFgkc4UP0tuxmQ0KKDWGhMX/TUyHGPiqWiJS8es8oPHAS2WB+au/Zcisg+0+YcA4IZutcQQWA7AiZEJZG6QmPfb4pnXzSJS7hxLvcrpepSBTY3a6xg3CL/Y2dzNJERqzhF4G4CzKibkacqQcNOhxXaqAoCoZpGaklfdp/kgy+oGYe5fiFVemK2QpyzeYtH4iubhCPAIH9NPxip8OV08ysJzs9ba7Nkmm9iWUXJM9Rq/3ItH5Xj0VJZCd1ZrRqJD7/WR22HuAbso8xcWN1saFYn6yOYT/9WRC1y38ftpfVDU2jMzc3WPQ++Fh2SgXhlg8huLjenRrcjGLwHwKLiaMQSYQIdJe+rIQFWX8DLyXMsYzjm55xpS6rr4p37tGHYPvOJSpsU2c+B06XXzkicHeLppPotgp0YzM/btDOBvBh3SmUaZNU+WN4EbaepWRPUvjCUD02TgeQBzGbUZLPBjjZf0KfQt1mqzGBWR8mQzcQ7Pz1sTLNLL4zFWd6HuYBRzi3Iimm3qd118YwEyi41O9FqjdoPljNe2CLpXmhfIznKyrrSl6f5eg3CEYeYwsUbvePS/MJEM1C8DLDNutW1i2G7Q17DyqyoStix921WoNx2bYXrC8PrSGyM/Uhkbr0VP/U4xJYxfAcAHIKvN+sPDkwAsVmi0Ki8TdDONI89selD2fSZGZe/NXk544EGONAYf9qAsHy07IJ7SiiH1elnMe6/nJmhtEmzIf1Fo7nTieO4xfJ6X7P6tEz70KrT+T9OZWuT7/zRkd+u6DTc/W8S9l2ZWH1ynLpDU72sI7B1p+t5eYSj6P3fDWm3ctFh0nLpOWEkG6pEBrkcvatWIdBKfvezElnBJ5gs6KRBeGrnOdaETIckNodWKfzl3WWs7H4tehYVkoD0ZOCBXSqOvxzizJZdqg2A4SVwfwP3OBITGcoNwEDXeE/dgcAOMjL4wkAy0LwOPGi0glhuuNwD4uzN78hCAjfIB6rUaAoxsmYnJm5E5vxoc0fxqX4c88SZjGo8/uzGMp7tFYx2qEXKgQ5tC38VxKXlQSZlgukiv1eVYdWr5knjEdPksTmdkhhlXfZeWM7XI77sAzBiToShJC2cVOZNhEftRNHOjI+2mWgEE5swyLXENZRSoVr8/uAAGMV+yvWPeWJUp0e3XXpTh7TYxG44CtG3r2LYw5wGDHLUhCDCzktV0vkUU9Q/GI0FOZf3JsZIW4aGukbONVQaYXtd683IssJ+MkD/c76DWB4ElAdzu2LmweMcKfcZt6aP3OeZPP4XVZ3L21mRgY0sGpQ+tTKjzgGM7wxw2S/cZd9Ifsebyw46ZTiNifZMOBfRXznlkzdiLXgUovTJwmQNPsqmTDIG9vMn/fwTA6g74FGQIUwA87dyxMIeB9baucx7lyqlXOVXrMvBW68YmS617lHN78wwA+r6k29bOMvv1MxyM9jxUjeLRxX7j02fCRTIQlwz8yIFXmR3ALc5tDsvAW9+4WVnUPuD0jH+3MWShi80rIxTPD7l3wXK55W6e6H1czkr8CM8Pnj9nqm7rbQ0ATK/rWUbIK/rCpNo7ALzgnLEUWk5jeWisfe1ZCTU28debDHzXg+HJAgAmg/PGm97x0BfSJybRVgbwRAJM5XE5TmNZb4sksEzTq5D637/R9c5jnjrysPQ4E4DfJOAv6BPpG123xRLJIse1nVWdcPLQBJTPuzPQ+NIMaL7uxAYtC+DZBOwQa97QR7ps82cbHm5OgIk0tvs44eA8CZzQkHNM0zmmwPfHAczlxBbtmojv4MZH+kpXbQ4Av06EgTyH66X4g8cCHSkYfo1RQU0uA1905Em8lYTPedT7Sl9Jn+micQ3nokScP9f9mcnKQ1sikY2avcqn/+U8PckAz5sv7MEgdXLpM526J/4MGgt9Jn2n+ZbKDnKmr/S0fnNOIoo2SAH1eRqGNgU+n2bei0wbwEIA7knENv1g2rBtvts7EUY9BeAtNlnUl2qm4kzBMGqM4nMKMsB8JJ6OmbGc+mOJ2Ciz+8mYjpK74b0rGMe4YV83avPDmRPIwOVdJjU+/3anLI+vAzCjTZPUl2qmJk8hl8zLANbsi0DEH3Ln6R0JOH9mx/OWynHfBPhW1njqejlUDzLwmYh9RhXSPphANlnK3V0A5q4CUFu/OTURJ8IlDk+N62veCzN5MOQagwKSKjLAY4ELeDJYAHZPxNecaYVvn0qEIYdZYUgJOk9JhHdVjKd+I6frQQa+V8IeWLn0oETs1o6xM2Q5AH9PgBmnOzrrn8vUOs5rcHsw3hqDgpBxZYDLlh7KBed2K39NYdb5OQAr5gOO7XVWACmc0fwFgFliA39Merg56NoEArdxjad+LwfsQQaYaMZbo02+PAEbdmOsNWa+kwD411vbjFFQy3dJgHceDLfGoAAklAxwqdZbex0A2uhQGMXaT3TLOFskADp3YnrJqNWt+Mxc+LcE+BerMosu/wY7Rh4/7PRhhjaatjpGzEPS9KFuI97me5a8/bNzwO92luWvW16Occ67kEqnvvwb1pR4fES3IXD0nhlZvQcBD8ZS6Ml7wRimnVzckXJ0D4Uli19VAOD+aSElp6axFg/SXol5U1m3oarwPoUg4OAKuAT9yZLOszF5dv4UhKvk/OX8JQNJywA3NXtt3oMAZgl8c5vMO8+x8eCyBivieW3K+Ff8SUlPlcLKswx4yxDYbbO9BwGXdg+2yffvduz873Xu/JlbmtGjZ6OmsYm/koFiMvAigFWadB4N38t7EPD+hvGcen3bKlwAACAASURBVA7+VqcOhM6fSxteG3NKe98gI8NfzPALJ+GUy8AtAOb0avQ6m7i92j1uUp+tSd593qnzv8+586eMMIthrvR6FRaSAclALgPm68+PcIKeZwK+PGLswb7mOUuP6X7p/JcKhlKcHX1azl/Bj2RAMjBEBj4Wp+kKRpXXIOD5pk6rnTZEePJI0trrXwAsHUzE4uxoBQDMJW2NN6JXPJMMNCcDz2SzhMvGacKCUeU1CDg7GEIDOmKxHxaT8KSQKTh/rg/d4IxvnmSw6bFQhzmLx2xw/ON7b3rdNKae7se6IN7qnfS6NI9BwL8ArNw70JD/n+DMidwPYJmQAEXal7L9+QpaOd3HoiDnZ9N+JwE4GgBLon4JwF4AdgCwDYDNAawPYPXOU90bR2z04iawhTrX8jf87Xs6fbFP9s17fLNzT977AgA3Oc8H4sm5Fx3LtyK1ZSHJ8hgEnBwSoO6+aBh4XKSoAMV+3QOJOP8POuJZ7DIVkj7q2s0dB3s4gF2zxE1TALwp0lLUM3R2Wm+czSrslqUpZZrZCwFwd7knuxGSxzH3xafJ93Y7AKfvvQUBPN5NGxG8Me1gzAJbhjY6f+/rXBQACvcTjvhWhscWrqWy3gbg4qwwC5+4dgewaScHBR2ql8Zy00yqxbFxjBwrx8yxKx9FvHb1MQCLehHCIePwFgQEr/HAs+NPO3EkrHy3/BBh8PLVTAD+1wnPLDjzIjRygxUzd+0PYN0E1lmL6BLXmokFMSE2xKgIlrqmGZyuBMAAzntjgMoCOx7kint65g3JsC84AeZZAGuFBCbivr7uhGeWFfLxzhQ+0y6vAYBBmdpwBIgRsSJm3F9ADC3LgAfaWfAthcbiaF4edLlXJ0ibNVt/fMiBErLyFdMXp9A20q7uVpzGIwB4FGfPTmpVT9P4bekNMWSaWmJKbImxB6dqaQysGPrOtgSg4fvSdr7kQMaoJ0GyA+7sAAxuaPGe4CLXE+709jKVFbuR5F4SZlbkBr0UlpVyGWv7lVgTc2JPHsQuJx7oI86vb5vxDd2fJ2g8HIvdZVy8uPZzuwMF+9y4QBj5PfdqXOeAXzEbzEcB8FjlekZkIgUyyQvyhLyJWXas03ZNdrpjrhQEqnPk1Tq/6LvH2r/BM8DWQajtXGRkisClmisc8CtGeePGtFM6S0hax49M8LvIIW826/BKmwnrsd0/T2jzKn1HjPaoDE304ZXbD40DwGNGnitc5YzlOumPjfOqjFA3cS3Prp+bJbnZCsDsOdB6NYMAeUbekYfKQxDWkXHpJYX9LfQd9CFN2Ju67kEfXqnNYbzoD5V+tUojt/ejo4wLaV3CX7Zfbna6HACLJs1jTwxE8QAEyEvylLwlj8vKha6fjNmRA7D29jF9iOUAkkcC6ctLt48YV5Q9So/Y5g94floGajwMftNZ8+MGSjXfCJDHTGlMnktvxsOAx8NTaPQllmWFvrx0Y55xq4M+r/Robf5A5X2ryyjPl/9nAiWgbUp2M1Sz/DdlQNkyq+kRT1dt1wyrWr8LfYpVf0hfXqoxi5DVs5A07AuUGq3Ni5mn+x+GhbItZWL1R54KSWU3s03pbpZqysK/AaBstCWXVu9LG7RFs+xq5W70KVaTUtGXl8oMuKNhRfhMK+LR7E3XAcCKcFaNRht0s2Ldp7KqeTM3yyrdzRAClA0+0f5JulXKtjwHgDbJe6NvacN2hbgnfXrhZvU4Gc/Aj3XusTBC7V24ouFINIQgl+3jqkSeUNqTSH935g7396mWRilnx6fjFfyJwnQjom+xmmeFPr1QY9lfiztluR7lPTkLK3PdZzgKLeu8q17PLF5c90rhqaSQUuuiygjQprCsMe1LVXlM5XdcQqmlFG1l7oX/IeXBoizQp9O3j2xcH7UosKeNHJntC+bLzjVzGtsib5qimWtd30/gScS2JNukfqWspDETw6h88XAbxOUT2irPjb6mKZsW8j6FMuLyrGzImzbRF9egCkU3RqWSSU1+ZZAvTfCe92DWt8MALGKUvyLbDgJ8wuUZeJ6vbkq+rd3naufJs+hr6HOs8YW+fWjjJhiWzLU2sKOHjsr2l+QJy6Ja40kT9HIj5H8oaY9tATdKPZ9yWXL7BelmX9vEZRPPG26/Y5Dv9O1DebK2wUHxGMqSRo3IKLLJrHMM8qQJ58/SsIuPAlDfC4GaEaDtsXxGvE5dpe0a6nBq5k2d3dP2sMR8nfjV0Td9/MDGzE513LTOPs8YOBrbX8j595fFm7PlkI1ts1bUO0TgXQBuNWg/67TN7NtzEHCqQX4Pzd54scEBre7QmMj5T3b+T3eStXh9onAoxskNaZZsb8B+nT0pdTtWS/17DQJWNngigD6+b+MZx6eMBQCX9R2J7Q/l/Kd3/jxyw93XytNvW65Ton5hANwpbvG4WF2Bhdcg4CJjPpM+vm+uHD5J18X8uvplOlxPTc5/ehm8Vmf5PYl3cmPhmfE/GLSrddlrj0HAJgb523fWfG9jA3nM2QYTOf9pzp+83WVQpJqcG9GALSPAp63dAFCm63Kslvr1FgSQvw8b4y19/aR2rrFBHDdpBHY/kPN/zTgyW9V3Acxvl5WiXAj0RYAyfazRLKuhAwxvQcBRxnwnff2k9ldjg1h/0ghsfiDn/5rzZ6Kj1WyyUFQLgcIIUMaV1MvX6YB1jflO+vrpGrNbhY7y6uyP+fBZsMN6k/N/LbUqS7GqCYGUENhHaYVdHRG815gPna5mwxRjxB/qwFLI+QN3AVjDAS81BCFQBYE18ZoO1PmwFHvfXpYDDjHmQ+nzJ9quxojnlIvlJucPMIHT3JaZKNqFQAAEqANnGrO/oYMKD0GAtWUA+vyJdrghAWQRBibcsNpSd/7k3w5WmSe6hUBNCOwEgLUtQjtXK/1ZDwLokywVCKLPn2iWis1cMUG1vTepO/8bAaxoj22iWAg0ggBLDqdc8tt6EEDfZCXgos+faMyvboXwr0xQbetN6s6fxzZZ1lhNCAiBwQjMAeAEQ/Y4tN+wHATQN4XGo67+6POnNiYyeNEQ4e/MCTf0mrLzfzJ7qtnKEK9EqhCIAYGPAGD9i7ocQMz9Wg0C6JtixrWbNvr8qSmBlzBG9GwxaGcJGlJ2/r/J8vhTvtSEgBAoj8DSAK4xZJ+7Hcy47y0GAfRNlh6mp9rmTQ0J2O/L61Crv0jV+f8TwMHOUjW3Kki6ebIIcHPZEYkWFrIYBNBHjRv8NPV7+n7sbohgHpex0lJ1/o8AYG10NSEgBMIhsAWAvxmy1aGcmLUgwNKRTvp+HGRIqL4WTp9q7SlV5399toGJpVDVhIAQCI/AYgD+ZMhepxgE0EeFGnfd/dD342hDBH8yvE4F7zFV5//fSuwTXJbUoRDoRWA+AP9ryGaHcmJWZgLoo0KNue5+6PtxkiGC1+nVhsj+T9X5n52t+c8aGS9EjhDwigCP01rK3RLKkVkIAuijQo237n7o+/ETQwQvELFGp+r8j8mPk0TMG5EmBLwhMBOAEw3Z7lDOLPYggD4q1Fjr7oe+Hz8zQjDTZMbaUnX+B8TKENElBBJB4OtG7HdIZxZ7EGAlJTB9P642IkCPRqrQKTr/VwEwd7maEBAC7SPA3dw8ehvSycbeV8xBAE9CxY4f6aPvxw1GiL2nfT2bREGKzv8FAO+fhIQ+EAJCoE0EmG3zJSO2PJRzjDUIuNMIH+j7cbcRYllIJqaWovN/AsB6MTFBtAgBITCBwEYJpg+OMQi4zohPpe8Hp9ZDRWR19sO0srG0FJ3//QBYrUxNCAiBeBFYDcBDRmx6KH8RWxBwlRH8py6rW6lBfXkkOpei82flKCYhURMCQiB+BJYEcLsRJ+QxCLjECPZTN9ZzQ1coJtTZD0GNoa0P4B9GMAvBj19nyaLmjwF40SAEhEBhBF6fWCEh2mTa5hgaZyRC2N66+6DvxzNGiGWmuVjaNokEARcBYH1yNSEgBOwhMBeAnxux7+M4Ozp/2uRYmhXM6fvxoBEBYVnMmJr3ICC2dbWYeD+IFlZu+yiAeQddoM8rI7A4gIsBbA5ghsq9pPdDZuhkID+Og435t7E5f0oYZ01jxiynjb7fzFrRLRHq7keczgTI+ZcTNjqnbwDIz//OXe7nuroAAsyBnxuuuwDsp6WpAqi9donXICBG50/EeWItl9WYX7lPBNcaIfa+wuLe7IXeggCmh+RGR7XhCPApdLNOTvbufTQ0SmrhEZgRwL96bBVzUjCf+Zrhb+euR85OeZoJiNX5U3D+3COnsQYB9P240gixj0eskl6CADn/0ULGXN+fB8Cn0H6K/djoLnRFRQSeHoA5+fC7zPBuD2C2in2n8DMvQUDMzp9yRBvQzzbE9hl9/9R1tdgI60fPK5Gv/VkPAuT8h7uAtwM4FcCLI5SbWcDU6kGAs4D9bEP3Z3xQOAzA0vWQYL5XBgEXFsCxG9OY3sfu/Dkz+LIRfLmnBj8yQiyFkGutMTduAKOAxqQwRWiR8+8vVVwKYc2DMpm9Ytus2n9kNj/9YwndYm78n2Z/a9kcaq1UWw0CYnf+ZBp9VBGbG8M19P2mSkpuUqtahOncWhBwttb8+zKeMzpVcnpf1rc3fRgCgSoZ1rhv4Mxs9mapEAQ46sNaEGDB+VM86KNicO5FaGA5aXzLEMGfMaKAVoIAOf/JAjVlzAQqZ03uUp8EQmCcqWsWyjkCAE8TqL2GgJUgwIrzJ6r0UUWcbwzX0PfjQEMEH2lIcxkEdO8Oj4Hh3TTI+U8vTKsCuDSALhw/fbf6LyAC3IPRLcNV3rOg1T4AeDRODWAQcEEAXKvwoshvLDl/yhN9VJFxxXANfT+2M0QwnwAstViDADn/aVK0RLZh7LSA9dQPnta13gVG4KiAtorlxamfavEGAdacP2VpnFmqpoMC+n6sG1Cp6h7A1MQFxjR228hmAuj8ZzKGYR3k8jgfo/XQNdT5dKlWDwJfrMFW8fjgBvWQa6rX2GYCLDp/MtxSESb6fixYg1LVFQhwQw+LXFhrsQQBXJ9O3fmztsH+AJ6qSe63sCachuj9YE08o706PzsRtbwhLOogNZYgwKrzp2/qTVZVly8M0S99/9T2ZI2KFYLQ7j4+nBNt7LXtIEDOH9iygdoX2m1en2LSQXfbgtDv6Xi4hENHmGprOwiw6vwpL/RNoWWyrv7o8ycazy7XdaPQ/XId0GprKwhI3fkzN//JDcg4U9OqUE192sm8DEwIFtqm9Pb3BwAr1DeM6HtmEMAZkV5c6v7fsvMnU0PuUakb6+nylZzRArOrDvD66NVnOIEfa3hPQOrOf0MA9zYk3zcMZ72+DYDAbQ3x8nkAuwWg12oXTQcB1p0/+UzfVNWvNf07+vyJ9lVDhDPDl/Vyq00FAT9OeM2fOeF57pvy0pRyEW+1ehFoepc172dx31EILjQVBHhw/vRJTdqacW0aff5E+0SDRnJcwvl7bgay3uoOAlJ2/qsDuKkFmZ56rta6YEZO/6Et8JVlnjePHJe6yKs7CPDg/Il9nRtUQ/jM3j7o8yfa2i0oVS9BZf6fbvpiYhT23tQVBKTq/Fkyljv82yrGoXPl9evgji3ZKu7u5hrv7PUPMbo7MAg4rwbcvTh/Muz0GvAp4xPLXkufP9E4fVG2gzavfxbAnBPU234TOghI1fkvA+DXLcsxswmq1YvAei3z+E+ZM0yRz6GDAE/On0eL6ZPa9Ill7z1pGb2pzTVlCR10PXfUe2kfD7QxkNWdUjznv0sECsj1P9Wir18jmcBpkE1o6nMmj2LCp9ROfIQKAjw5f0o8C4c1JXsh7kNfP6mdYGwQF00age0Pxg0CUnT+r4so9eYttsXPFPVM4xvCEI7bBys/plZciEcxx1kO8Ob8qThtHJkcR3bp6yc1axsBuc47/6RR2P6gahCQovNfCADPa4+jCCF/e6xt0TNF/Q8i4juXBBYzhd74xFYNAjw6f06lh04nHtIu9etrug2AuThQiPtdHPNnn82Jd/RaNghI0fkzI1wsT4G5fmztSAZjH8onI7NVDwB4S+ygBaaPQcC5Jfjg0fkT0l1LYJDbirZfBwassRnVUUDdBYA7v721okFAis6fBSwei0zprNaosKo3b4qM/7RTrC3BpFMptaJBgFfnT99jqfgP5ZQ+fmA7JULFGhUEcAOGx8ZpmleH8OPMBDf88awt0+2Okommv7/RowBGPqY7I5QDTgVvEzluockbFQR4df7EcasIZXCU7aOPH9h2MDigaweOxv4Xg4KAFJ3/7iMColGCX+f3lutTWNWSEyO1VTwNsrdVUCvSPSgI8Oz8CZWlGjq5/aOPH9h4ljq/0NLrJgNHZP+L3iAgRed/UORyySqDas0iwPwZMdsoZixM6Zggg4Bzunji3flv3DXWmOWwlzb6+KGNG1p6fxT7/5cPHZH9L/MgIDXnz3PHp0Yuj3zi83YaxYLGLBy5XNBmMjscZTiVlgcB3p0/+UmfE7tf7KWPvn1ks1QZsHuA7xw5MtsXbJDYmj/P+FtQsutsi5Vp6i0kL/sFAJajTqUxCFjf+WC52bPb91h5XyiFvsWNDWTAHxNzkJ51jE93VkprHumZEZGP7TgjhpiyTJlWs48AM61y068Vp99NJ337yMZiF88YHaDHvAAjGebsAp5R5fHObsGN+T1nZtTaQWCKITmhTA88f90OfLprBQT2MiRz3Xbz6TKpymNfd+0eWPf7JwAsWIGp+kkcCFhz/vcmttErDimZRgU32Vnas3Q3gMWnka93xhB4QyffQ7fPsfJ+6PG/Xj5sZjTKITOO7x2M/jeBgDXnT1nj6QS1dhE4zJitYiIWBQHtykzVu3/fmKx1ByfvLjNornP81ehguSt7ulrHZQaua1tBwKLzp3Kt1Apaumk3AqsZtFMMApboHoTeR48Ay1Az42e3U7Xy/tEq++NY3MTKAHvp5HpbSjtvo9eeIQRadf7a/T+EqQ1/dZNBW/VnBQENS0n127HgD/nV62es/H9MlaHzKIeVAfajk3ny1eJGwKrzp7ztGze0SVG3v1FbxT0kSybFKZuD/YlR+cr9ImcvSjdusPmL8YHvUnrU+kFTCFh2/qzRoGNdTUnK6PtwTd3q9KyCgNH8bfOK3Yz7QMpX5WZtg00e8eSvLByTWpnOysxu8IeWnT9ly3vmyQZFIditrjJsqO/LMl4uFQwJdRQKgVUiLT6W+7cirwePAwYBKHKTmK+5GcBc44Cg3wZFwLrzp6xvHxQRdRYCAc72xWyHRtHGIGDpEECojyAI0GfQd4ziW+zfrzwuGpc5AOHnieXkHpfndf3eg/NnkiymKVaLCwFu1LKawCx3IlxyVRDQvlyxfgN9Rs4Xq68/CwGl1apHvUz7oZK2hBCHyn14cP6UqUMqI6Af1o2A9SVLytf9AEZWbKsbyIT75943+ope/2Hx/41C8fH3TgA5IhQg6qcUAl6c/4tZoqmFSo1cFzeJwCIAXnJgqxQENCk109+LPsKis++l+ZrphzXef1s7AYUg7TceFPp1SQS8OH/KDovPqMWNwIlObBVTHC8bN9TuqKNv6HWkVv+nzw7WZgRwhxNweFzo08GQUUfDEGC2M0uFfYYpO2uca6f2MG7H8d1yAHhMcxgvrXzHIGD5OGB1TwV9gtWjpL3yfCcA+uygbVcnSkWwyGjNBAQVj0mdrQrgQUcyc/qkEeqDWBE4y5Hc/Q3AWrEC7YQu+gIvzp/+jbkLgrfZso4fdqRYBIrrPdz0oRYWAW4+YfnJ3sjU6v80DsonEVZG6uztbY5kjzrzLIBSxVzqBNdR37T9Xtb8c9vKvP/01bW0f3emWASNOz557EMtDALbONmIlSsUXy8KA416aRABD8eXu2XwFQAfaxA/77eizfey279bTg6ok3HzODhr2w1W/p5nPpUsaHzJ2QsAqzHmuHp5XXd8aNRDwwhMcSiHnIn6XMM4erwdbb2Hc/699vXvAOarm2FWC2/0gtX7P7M+MfOhWnkE5swqm53s0OBSRn5ZHg79IhIErnYqk9Q16pxaeQRo4z1k+Ov1X/y/1qf/HOpZHZ0I6AWRtQNq2UCRg+fwlfXYb3NqaLmbnONTs4nAGk5npGi3qHOSzXJySdtOG99r9z38f3eda/+9MG/uFMRcEFj+kalF1YYjsAcAJsfJcfP2+t3hw9e3BhA43rF8Uveog2rDEaAtt17Sd5Rtff9wCMJ/e4FjxSLYf86qvlWqoxwe6uh6XADAec75z+NXta+nRcdZfwRRVh93LqvURY5TbTICtOG05aMcqOXvfzp52PV/wqQonp/+KBDcdPP9LAPcG+qH08QdmFziMwkYVPJ+ZxMcEZFFELBe072Ic2KQQ90MngCmCMARXkObTdvt6Xx/Pzl4GQCTX7XSvuY8ssoBfypzetzhPlMrKMdxU0bS1yXCb+bRVn6IOOQuBBV0in9IRHapoynPXNJG01bTZuf22/PrwSEUpGofs2dpde9NBGgK0Y0ANqwKltHfsfjNaQlE0rmR4DHGtY3ySmQPRmCdhGSYT73U2dQKV9E200bnuuz9lamiWz++/qGEAM8F6nIALJPsuS2ebYT8DoDnEuMvpw3VfCJwUmKyTN09GsCSPtk5MapNs1kP2uTcPqfyuu0EAi2/8ZZ1q6gAcap4K2frbitnRW9Ozc6UMvNYURy8XPckgNe3rEu6fX0IcF04lanhbp1kIaszAKxeH7SN98ypfjrAVJYlu/nJ91c2jviQG3JDYIqKlTPldgAslmT16CDXSDfppLz1vmkm51m/V/JQzTcCnoqa9ZPhUZ/xYe29AGY2yuYFAewN4J4EH1By3jLjX2sb/wbJDXPA5wSm+vpSlpzjfAAfATDHIKAi+pwpbo9yWOSpivydGxFfREq9CHg/E15E/h/LTjcdB2B9AxtemfXw4wAuSXRmspefn6xXPar3foKCgIkgiBW8WEL2gxHNDLAABp3+IYlt3uxVoN7/uZFVZ/6r6721X3KmLuUnyF75vw/AoR3bEEthNPKItpNLF6ntQ+rlT/f/p8SsbHzq/ZOCgIkgIGccd5Zf33na/nCD68wsC/lOAF/JIv0rpEiT+EL+cK8Dd4irpYUAT3qkuM8lt0mDXulsaStoM2g7aist2yNu3HtD28gZSdpKj0XFBmFe9HOmf259138P3yb9y7rpXvMtF2XUqOu4zs59AxcCOLKTwINr8Nx5X+X8+fwA3g6AU0PMzXBmts73+wQSNY3Cucj3X5gkwfogFQT21cNK36C4W2+Y7I22hDaFtoU2hgFzlcyDtG20cbR1TFpE20cbSFuY8t6jbrwHvScfzNR+SCHz1iBGjfs5MztxfY7pK3mm9ded0pXnALi4s/uTSU3u6Kzda3qs+t6TSysGXKk4yBTGyXXlcXU21d8/D+DRznIKbdVvOsfxiOl/A+ApqVsAcImBmQo141Jd1j5rTRm10aY6s1M1KE2O+6EGl2Ks6W5K9HJXOROqNCl7upfwLiMDrPVgrnETR0pZAsswVNe2awBY5ncjcxolgutCYINszZsyIb0UBrHJAGdPzG5Q5loRp7RjA1X0pM2TA+vyJOrXLAIHyE7JTkcmA/Sd5us6fFQ7OqVYESkWNzNV2Whp1rOJ8MIIMAOmHg6EQQwywFMQ9J0uGqszxQCqaEibD8wXHss5ZxeK7WwQzI7HjaGyE8KgbRnY05lu4ZtSLBmWFmXg2uzY0eu8KZXGExwBZp37XYty2rbj0f3bD36+EVyqI+kwtWpcUqb2lYk8uDNLe8pCMGpCoAgCTErDs+nSX2HQtAz8VxEBtXoNKzjp3K2UqkmleiSrjb60VYUR3a0hwBK6DysIUBDUoAxcAIA+0nVjumAmjGjSCeheaeL9jLMSqK4NQ4SDY+a1p2WrZKsbkIH/zeoxzB6hDtRCEtNI3toAqHL8aTp+8p2VGafUIr3qNCUEKEOUJdkSYVCXDNxk+ax/VWPAnND3S7FkWGqQASZ12bqqYOp3QqAHAcqSEgUpAKgjAGDK90V75C2ZfxkEaCZAihVSsViI6gPJaJAG2hQC7wfA3PchZVV9pY0n6ycs0pQAx3ofLgf8VoolwxJABp4E8I5YBV10mUeAWdlY1EaOWxiMKwNXAWC6fDUAPHur0wFSqnGUigVdVpY2CYGaEVgRwF8UBCgIGkMGzgUwW81yaq57ZuE6eQxQx3Ee+q3t4IMlRxczJ/Ei2CoCXLPlxi3ZDWFQVga+B2BGq4LfBN0HS7FkWErIAI+Uzt+EYOoeQqALAU7fchq3rAPQ9elipiJkXQo07O3eKiAkw1LAuF4MgHkl1IRAGwhwGpfTuXLqwmCYDPAEya5tCKjle7ISkkoJS7EGKdYPUsiaZVmBE6Gd07nHKQhQEDRABl4E8KFEdCH4MLnr9r4BwA5yDPrcd9DAoHCf4JKmDoXAeAjsDoDGXvZHGOQycFe2uX3N8cRKv54PwHlSLBkWAFIo2YOYEVhVeU1kpzq+6kwAc8csrNZo+6wi7KSVSwplTWPTpJdHmlX1NN1ZACaL2ilN0a9/1CzOcZtmA5IKBJ7Lzl3vWL9o6Q5CICgCHwfwd9mqpGwVj4auFFSK1NkkBOYCcIoUKwnFYqpMJl5REwIWEVgWwLWyVUnYquNTquYXgzJ+UhG2a8ViwoxkymPGoFCioRYEZgXwbQD/UiDg0l49pcJjtehNoU6XA3ClFMuVYj2oYzOFZF8X2UJgCwCs/JbvENerfSwuA7CULTH0Se22AJgLXkplFwMe72MWSC7xqAkBjwhwRovZ4FixUrbKLgYM5Lb0KKCWx0THQQei5EH2FOtSAG+2LHyiXQiUQGBJHW02GQAxcGMAp6XJEsLe9KVcFvipImwTCnY3ANZZVxMCKSLwbuUNMGGnOFvDlM8M3NSMIEDHQgejqbb4MOBZ2S+rJKYRTRKZdSIwC4DPa0NztHb6VgDvqlMA1Hd9CLBYxwFSrmiUizuhmhioHAAAAyxJREFUz84SpSxeH8vVsxAwicDCAE5TEbRobBV39+8HgAGamnEEmE6YgcCjmhFoRcG4L+NkACsblyORLwTqRoBLmCcCeEm2qhVbxVNInJFRGt+6Jb2F/jkjsBuAO6VcjSgXM6EdAeBNLfBatxQClhHgjMChWeGrp2WrGrFVnOpnxlHmbVBzjgBLeG4N4BopVy3K9Uj2BPMlAPM6lyMNTwjUjcA8WQ2U/QFQp7SfKTwGv+0c6Zuhbkaq/zgR2AjAz6RcQYzL7QB20ea+OAVdVJlGIJ+9ZEVMBQLjY8CjxxualggRHxQBrk8fAuA+KVgpA/MsgNMBvAcAZ1bUhIAQqA8B6tj7srwZrI5J3VMwUByDezu5YlSwpz75NN8zp4LWB8Bc9I9JwfoamFcAXAzgYwBY/lRNCAiB5hGg7jEL6oVKgNbXTjE44sbvYwCs1zx7dEfrCMwM4L0AzgDAsrQpR9s8wverzibKBawzVvQLAWcI8KQT69BfAeDVxG0VN06yYiwTLc3kjM8aTksIMNpmjW9mhEplZuDFjtP/os7utyR1uq0QKI8ATxB8LnvqvTyhZQLWguGD2lbag1ReYPSLcghwmYB7BnYH8GMADzmJuDnL8YvsCeIrAN4pRSonFLpaCESIAGcx185mML/QWbZjghsPM5n3dJ7ydwCwTIS4i6TEEGACD07BnQqAm00sKBmnylg3gU/46wCgsVATAkLALwLcRLg6gL07s5l/NWKrbgNwQpbD5RMAFvPLHo3MCwJvBLBBdqqAEepBAM4CcB2AZxpWOGbh4/E8OvrvZMsXewLYPNu5v6x27XsRNY1DCIyFABN1TclmMnfNNvUengUIFwC4Ocs/wCXAJh9knuzkZuFU/lc7zp6zF8onMhZ79ePYEHhDZ1fq9p3ykt/qpP/8UWea7srsqM+1HcfN1JQMGrixh0V0uKuVRY5uAHB1J4fBT7I1+pMAHN0JNvbobIBZSptgYmO96BECZhDgbMESmZ3ZtLPcyQcZ2hjaGtoc5k+hDaItok2ibaKNoq2izaLt4sMHbRltGk8O0cYx1TFtHkvrbgdgXQALmkHFEaH/H/UBIWWaWZzMAAAAAElFTkSuQmCC;" vertex="1" parent="1">
          <mxGeometry x="350" y="570" width="40" height="40" as="geometry" />
        </mxCell>
        <mxCell id="0rVqEpUzt8lyCxF0MDS7-7" value="" style="shape=mxgraph.signs.transportation.airplane_3;html=1;pointerEvents=1;fillColor=#000000;strokeColor=none;verticalLabelPosition=bottom;verticalAlign=top;align=center;rotation=45;" vertex="1" parent="1">
          <mxGeometry x="375" y="490" width="50" height="48" as="geometry" />
        </mxCell>
        <mxCell id="0rVqEpUzt8lyCxF0MDS7-8" value="" style="shape=image;verticalLabelPosition=bottom;labelBackgroundColor=default;verticalAlign=top;aspect=fixed;imageAspect=0;image=data:image/png,iVBORw0KGgoAAAANSUhEUgAAAgAAAAIACAYAAAD0eNT6AAAAAXNSR0IArs4c6QAAIABJREFUeAHtfQfYLFWV7SInySpBMkiSoAQBQbiAgphQQDGBZEHAAdTBhw7qiGQVEARGSQIKkkEUxBlwUJ+IgCA5CJKVLBnR92pduv7bt/8OVdWnqs7eZ53v+7/uv7v61D5rxzphb0CtDQTeAGA9ANsDOBDAtwCcCOBHAC4GcCWAawHcDuBBAM8AeBXA8wAeBXA3gBsAXA3gZwB+AuAkAEcDOAjAHgDeDWApADO1MUDdUwgIAfMIzAhgiczObJrZnd07toU2hraGNoe2hzaItog2ibaJNoq2ijaLtos2jLaMNo22jTaOto42j7ZvOwDrAljQPFoagBDoQuCNADYAsENHcc4CcF1HMf4fgKb+Xu4o4U8BfAfAngA2B7AsACq4mhAQAmkj8CYAUwDsCuBwABcAuBnAiw3aKdrDJwFcA+CM7L5fBfAJAGtndmvetNmj0VtAYOmOsz8le7L/c8OKUzWYeArAJQA+D2AtzRZYEDPRKATGQoBB/+oA9gZwbjZb+Fcjtuo2ACcA+DgABixqQqBVBJYDsDOAHwL4ixElGhUo/L0zrbc/gHWymYuZW0VYNxcCQmBcBKjDfIr+QmcKnkH/KDtg4XsuOZwM4NOdpc5xcdLvhcBQBGYDsFVneoprWxaUZFwan8v2KlyeTc19DsBCQ9HRl0JACMSCwMIdnaXuPpuIrbq/8zC2JYBZY2GE6LCNADfQcTMdp/WfTkSRBgUN3NhzRTbbsaPW5GwLtah3icB8AHbq6Ch1dZAep/A5Zzm4UfFdWtZ0Keu1D4o79I/p7GpNQWHKjvElAOcD+AiAOWrnhm4gBIRAPwTmBLAtgAsBcLNvWT1O4fpHOqejeNJATQgMRGClbOro4GxN6V4pUilDwn0D3AfxHp0qGChb+kIIhEKAm/jeB+DMhKb3QwUq3JxNG09bryYEpiKwYbZJ5lI5/VJOf5BC8swvN0ZqDU7KJQTCIsA9SLsBuEu2Koitos2n7VdLEIEZsuQV3CzyWylTEGXqDQge6uw6njtB2dKQhUBIBObJzuPzVA6nsnv1TP+Pjwl9AH0BfYKacwT4ZMpNbLdKmRoxJtw4ySk3nSBwrlgaXnAEuJP/UG0+bsROMZCiT6Bv0OxlcFFuv0M+iTLZTSrH92J7MmBGMSbxYO4ENSEgBAYjQB1hqlxutI1Nj1Oghz6CvkKzl4Nl1Mw3s3SY6SX5hXUF/CeA0zIDt4gZCRKhQqAZBPjET92gjljXcw/002fsB4A+RM0gAptlR2SYPtKDMHobA08OfFHKZVCrRHJoBPKHFOqENz33MB4uDTCfgJoRBJiTn+diPQif9zHc0Tk+aES0RKYQCIoAk4xpP5INW826CUsG5b46C4oAk2J8o4UKVt6ddBPjY5lQVidUEwIpIEBHcp4eUsw9pL3QKWE8ewpCammMH83SYDIXdBPOSveoB2duevomgLksCZ5oFQIlEKDjOBAAHYnsiF0MmFCIRwfVWkaAO2avlDK5MiYPAPhQy3Kl2wuB0AhsYahMuIKTYsHJZapEGFpNivf3iWyXpjbOFBNUiwp9HABmP1MTApYR4Lnyb2dP/v/Sg4qrB5XcpvK0wNaWBdQa7Vzr/4GUyaUy5UqVv/4RwPLWBFT0CoEOAtzXcq1sVRK26vgscZP2BtSs+qtkFehukUIloVB5EMB65tvVLFfqXgiERuDjmqFMyk7RXt2kQkOh1Whaf7tq80xyCpUHAXw9VRsEpymD3kWLAGcoWYu+W3b1Ph08ns82pO8UrXQaJIzFMH4shZJB6SR2Ws2gDIvkNBBYVef6Zac6vorlmpVOeEy9XxPA3XL+UqouGWBdgd3HlCv9XAiERoAySdnU074wyGWApZvpw9QqIMCjYFIoKVOuTL2vxwKYsYJc6SdCICQClEGeWOmVT/0vTCgD9GE61lxS47je/6qUSkZlhAyco6OCJTVLl4dEgMdUmSJWzl4YDJMB+jL6NLUCCDBT1jAw9Z3w6ZYBJoLiPhE1IdAkAvMCuEq2Sra6hAzQt6kNQIBTad8rAWa3E9D7tIMC5gtQieEBiqWPgyOwaOfIl+xO2nanCv/p47R02aOSmkqTIlVRpu7fMD/3m3vkSv8KgdAIrAjgL3pQ0ZP/GDLAZSNlOe1opqbS5Py7Hfk47/8GYO3QFl/9CYEOAusBeHwMwz+ObOu3vuwkl4/o+5JunLa9UQqlaDqgDDwHYPOktUqDrwOB9wNgkhc5YmEQSgbo+5JduuTAOW0bCkz1IyxzGXgFwAfq8ALqM0kEWOxFp5JkX3L7EvKVPjC5IIBTH3ryl0KFVKTevlhzff0k3ZUGHRKBjQC8pAcVPajVKAP0hcksB3Dzg47PyPn3Ouw6/n8SwFtCegP1lRQCTDv9dI2Gvw6ZV582bSt9ovuNgTz+oMQZNgXUqmF5ICvOsnhSbkuDDYHAklnylofk/PXk36AM0De6PiKoc/5y/m0EErcCWCCEV1AfSSCwIIDbGzT8beiE7hmnLaaPdNmU4S9OgUvFEPwWAEu1qgmBYQhQRn4n568n/xZlwF3GQOZBTsXRaJzx8vqnAGYeZv31XdIIUDYula2SrY5ABtzUDmAlJB2hidcpphawnJK0i9PghyFA2UhNHzTeOHlOn2m+iiBrIaukb5wClrLiHzDMC+i7JBH4kpy/gp/IZIC+kz7UZJsbwF2RAZqy09PYpwVijK43MKlVIroOBJgv4h+yVQoAIpQB+lD6UnPtzAjBlBOc5gRTx4LHA7nbWy1tBHg65H7ZKjn/iGXgDGsqulPEYMbu+F4G8FgnTTIzRP0awM+zhDbnALgYwJUA/gDgDgAPA2Du+9jHFCt9l1hTLNEbHAHqVKzyGTtdtD20QbRFtEm0TcSTtoo2i7aLNozpbmnTaNtiH1Os9O0QXPJr6nAlFc0YKeT/6pwzvhDAkQA+A2CTTsKaGSrwZX4Ab8+WXD6Z/fZrWVlczr78XvsvRvKByr5vBbz1Ex8IkPexGvxY6OI6NG0JbQptC20MbQ1tTtlG28akXLR1tHm0fbSBzLlAmxjLmGOkg8HWCmUBb/r62QHcJEZOEuR/ArgewFFZRPxhAK9viDFMLfnO7BTGV7K8+FdotmASX6joLBykEsINCWREtyHPyfsYjX2bNNHR0FbQZtB2NJWeljaRtpE2kraSNrNNHGK89w0N8qOSqh4vpk0I7bMATs+E+YMRFXqYBcC6mRAdAuBe8WqCV/dExKNKiqcflUKAhVdUiXSag6UtoE2gbaCNiKGRR7SdtKG0pTE65DZoOiYG5vSjgSUz2wAkpnuyatj5AD4CYI5+IEX2GRWeETfX8WLCsQ1afhIZb0ROfQhwjboNGYvpntR56j5tQOyNtpQ2lbZVlRmBLWNj2FIAnkpYqbiGxcxNVks6sgAF1+W4gSfltTg32bdiMxAR0ZNyVlLq9kUdXbdadIY2ljxMuVbDEwAWi0incFmizv+abM/DVs4qOLF87g8TPRfNIPYNMSmWaAmKANeZWSI6pifxJmjhXodTAawcFM12O2MAQ9tLG9wEhrHdI5oTTJyOiA2cuum5HMDG7cp/7XdnOdTvAnghMf6eVDuyukFbCHw/MVnmhr7vJFAOm7aYNrluux9b/+9rS5Hy+3LXf0qbaXimdcN88Im8LgqAiShiE/666OE06TqJ8DalYXLXfyo7yynDpwFYKCUGd2wzbXRdtiG2fu9u+1RAKiV+OTW8F4CZElOo7uEydS6PocSmBHXQw6QmVtdIu3mm968hwPPnqUwVX5c9Da+XMONpo2mrU9mT9uW2eM0pYu/Tw4ykOW2odeHXpIxOcfdMwR5PIBDYrS3F0n2DI7BzAvJKnWRyHQWur4kPbTZtN214HQ8JsfT5fFtLPOc6B5ZLGylH0sOsMPOnn+ec/zSoHKeabQTmA/A357JKXZSs9pdT2nDvy9Q81tpoe5dzheKZcKtH+poUhD2cpxtmYis12whwI2ssT2uh6WCaXuqg2nAEaMtp00PjH1N/mw6HINy3zBR1q1MwuaShqd9ysrIagNucygM3ja1RDg5dHREClE2Wfo7JUIeihTrH8akVR4C23euy9S0AZi4ORfUr93OqUDcDWKU6LEn/ck4AJzuVi6uT5qztwf/SqUxS16hzauURoI2nrQ8ViMXUD31zrW1up7srfwZgrlqRS6PzvZ0etZqSBvtcjZIpbmMyziFo4YwUd7irjYcAbT3LFYfgSUx98OQDfXRt7fMOQWOGrEamTmrjSlwdf9Rh3W9mulSzhQBT3sZknMelhTnwt7HFgqip5VI2M56Oy5fYfk8fXUubFcCDzgA7uBak1CnrCjzjTFbeJraaQYDprD0d/3oawEZm0LdDKPNDHOHMTtFH01cHbzs6AkpTacHFY1KHb83OJT/iSGbOmjRCfRArAiwhG9uTWVV6aNBXjRVoJ3Rx7dxTwEhfHbQxUvKy85/O/+NB0VFngxBYBgBrjVc1fjH9jrvJlxs0UH0eDQKsTPoPJzJ3V7a5dolokPVNyKcdBQH01fTZwZqngj/aRBNMLAp1xIyRXoKAEwuNWBe1icBxjpx/VCVf22RqQ/f2dMKNPjtY+60TpdKafzCRKNWRlyCAG7EWKTVyXdwkAix+w+Q4Mc0cVaGFT/5y/k1KzrR7edkTQJ8dpLH6XRUhju033O2v1h4CXoKAw9qDUHcegcAhDmyVnP8IJtf8NafOvZwOCFK59lIHSsVz/jrqV7PmFOie65nW83LzdIPSRBdgdsOXvM7ByRM5/4aFZsDteETQQ54A+u6x2koOnD+zPinJz1hiEPTHHoKAXYIios5CILC9cVsl5x9CCsL1QZ/hIWMgfXjlxjXz2Kbyy9DDvM9K71uZ/bX90HoQcFVtyKjjqghcbthWyflX5Xq9v6PvsF47YKx9b9ana1XYp14FGad3BgH3GDXaPDO8+DiD12+DIrCw4aI/cv5BRSF4Z/QhZR46Y7uWPrxSs55Lm+Uf1eJGgE7UahCwf9zQJkXdvkaNtJy/DTG1XkqYvrx0O9qoUjECY9SjjVqlWd7KD6wGATe1gpZu2g+B6wzaKjn/fpyM8zP6Esuz4fTlpdpMhtO4MtPfeqVGq4vbRoBBwN0GjbjqsbctOYDFjcpy/u3LTVkK6FOspgtmSnb69MLtXQaNcb728l+FR6kLY0KAiU+sBQHKCdC+BB1kzFbJ+bcvM1Up+L4xWct9Il/p0wu3k4wO9AkACxYepS6MDQFrQcADoXNux8aQyOlh0hZLaabl/CMXqBHkvQHAU0Z9I316ocZSglYHuXuhEeqimBFgEEBD2R29xvx+SsxgOqdtA0NyIufvQxhZSyZmezSINvr0QmWCrRb++QOAGX3IWPKj4LGu640oGovPqLWDwJFGZISyTJlWs48A19JvNCJ3vcFAoQJBFvMgc3PGOvZla+gI+LRTaiPH0N7i/3JuAFcYUDSW3lRrBwELu/+ZoIhpilNptFG0VZ6b1fo49O0j2/0GjG5vZHPRyFHZvuCTnUQnZyYWBDAnN8fcy+/Y/mcVOrVmEZgfAE/8xCYL3fSwABllOJVG5099fTVbxqPN8twsZp6kbx/alopcobqVq/v9+kNHZfvL3Pnn400tCOBGr9hLdG5rW8RMUh/7UiVPJ6TUcuef2ynvQcCmRn0lffzAZrGgxm8Gjsb+F73OP1euHyU2E0BO7hPxOdwT7IuauREcFakBpuNLbTNyr/PP7ZT3IMDCElTOi/yVPn5gs3j8r9DGhoEjjveLT42Y4kwxCOCT9ssRGv474hUjt5TFuBGLhWM+6Bbx/gMb5Pxzh+M5CKA9ysdp5XXocUBLx68I+G1Oz2GPcv65sP04wZmAjSOt+75of/uoT2tA4PURzgY9BqBSzvUa8GmqSzp/Pojk9mjQq9cggOO3VsuEPr5vowEbxMBYP9+170hsf1jU+ec8STEIWB3AQ5HJ6ydsi50p6reOjPd0AsubQnB8Yos6/9xOeQ0C9o5MFnO8h732fVj5mLGBvAhgnvHlOKoeyjr/nMlnJTgTsGRnBijHoO1XpglVawaBYyOyVcw/ktopkLLOP9dNj0EAM8++EpE85lgPe6Wvn9S+Z2wQ50wage0Pqjr/nNEpBgELAPjvSOR24NSabbGMkvpbIuH5hYmd8acwVHX+uZ3yGARcEok85hiPeqWvn9RiUapRxOfff3jSCOx+sN2IDX/5mEe9ng1gZrswVKKc2R+/GMnmQJ5NV6sXgdkC6cooXRr2/bPZEpTH5cdRnBvX+eeYegsCPm4sAKCvn65xKt1SqUPmNaYh8NBCOf9cuVIMAigHbwXArHw5Dm28prYJrA39W7VlHvPY8bJtDLzle9L5c79RKL3yFATMCeC5gNiEwnhQP/T10y2fr2WIeA7qBy0rQ6jbh3b+OcNTDQLmANDm+vAOoQRD/QxE4KMt2Squ8x6Q4F4bMiK088/tlKcg4IyW5DLHsuwrff5EszaFsdkE5Xbf1OX8c0H4SYLLAbk0vDdLxvJoCwp5aE6AXmtD4MAW+Mop0zVqG1HcHdfl/HM75SUIYP6HfEwWXunzJ1obSlUVpH9kqWHnmqDc5htmY2oij3nKQQBrd1/csFJeYFMcTVEdchp6lA3iVCkzDs5uCqFwxNbt/HP8PQQB8zZk03PMxn2lz59opzdsKMch/poJqm2+acr55xjztERqGwO7JYNpWZ9vSL6ZmEqtXgRuaIiXDwBgvvdUG50/TxbldqTuVw9BgJUS5uQlff5E+12DjB5XkFgD3Gpr2vnnWKceBKwAgOe1czzqeuU6ccrBVt16ycJQTLdbF//yfllwa766BxNx/007/xx360FArPUpcny7X+nzJ9oTDShV983HeW8113Zbzj/H+tzEnRPLsh4MgEtIOSZ1vKaWEW7CiDTwpu5qpdw3knplx7acf66LloMAHk3PxxH7K33+1MZkKrETm9PHNTnSa6217fxz/FIPAig3dNDn1yjzH7AmnIbo3aImvvFc/1cTTOrTy/q2nX9up6wGATHWqMgx7fc61Zfy7HK/L2P8zOIa66cj2xxyXuIzAbnR2wBAHUtfTEqkVg8CLAkd0i5xyYbHRt9YD7mmeqXz5/HhkPiO05fVIOD2iDAchf/UvCU8jjbqwli+t7bLOjbnn/ORQQCnxNUAnisPWdGL64Bq9SDAJZxchsd55Uwind1y9ZBprlfuW4nJ+ee8tRgEMD10Tn/sr/T9sHQE8DBDqhWr88+FktPgCgJeE6hZAfDpMsRemFMNyag1Uo8PYFxZO2K6JCjWQAhMb6zOP7dT1oIAblLPaY/9depRwG8ZInjnwMJfV3exO/9cMBUETC8B3Pl9BICXxtAJPgGo1YPAODkA/pgt+bynHrLM9hq788/tlKUg4DNj2I58vE290vfjREMEv9OAqjEdbBNJfkIJiYKAyULF3eY8Csap4rI4XzW5O30SCIHLKvDjvmyJh1OdLBqlNg0BK84/1z8rQcAmFWQ0H2PTr/T9+JEhgmOvu23N+ecCx70VWg6YZhzzd5wq/mnJgI5Pmmr1IMAkYLnMjnq9GcBnHRUNC4konT+zhI7CMLbvLQQBixvClb6/8XSpVYWKR3Vibladf84PBQGDpWsZAIcX3CPAJ061ehC4c4Rx5a5+Zq/bsJ7bu+jVqvPP7VTsQQCTVVEOc3pjfmWqdFxphNgHI1Y/684/F1KuX2smYLCgMSf8jiOyCj49+Of6ZkwEHhtgq/6SJXj6MoDYZwjHHP7YP7fu/HM7FXsQ8PgAOc3pj+WVvh/XGiGW5ytjbHQIltb8RwmfgoBiUrYOgB/22TDIfQNaby6GYdmrurM4EuefA2BmUJ5hVxuOgBfnn9uvmIMAzgLmdMb8St8PK4kLrhsu3618683558J6kWYCCssTs399CUC30qecR74wcCUvnLtjVPl0xZMay5b8fcqX0/mzHkiu315eYw0CWD7aAsZTH6o5tW6B2F9FpsFenX8uCwwCeD5erRgCfOrn0+jlAJYo9hNdVQIBlltlSu1US/OWgGq6S706/9xOxRgElNmsmo+jjdepy+rPGAkALp1OrNv9x7vzz4WRU6xztQu17i4EhEBFBOYAwEA+12evr7EFAUw2ZQFr+n4QPAvEcgorhsYa4Z7W/EfxnvnyF4wBeNEgBIRAYQTmB/BrI7Z9lA0q8j39GOt7xNAuMYI7McPzRoglqDE071Nq/ZSNa0VLxgC+aBACQmAkAosBYB6Efrrs9TMm7oplMyiXAS3gTN+PvxohNqYMaykGAQ8BWGWk6dEFQkAItInASgDuN2LTQznJmJw/ef8bI/g/SmLvNkJsbKcAGAScawS7UIr2FAAL6ZjbNMC6txBoC4H1CiarCmUPYugnNudP3t9oxC/Q94OpS2Ng5CgamAUstpZiEPAigC1jY4ToEQKJI/B+AC8YseWjbH3R72N0/hRDKw/VN5DYq40IzSORKniKQQA3j+waKT9ElhBIDYGdDG3mLurcR13HPPaxrPn3yhun1kfRH8P39P1Ts2nFQMwoGp7rRTmi/1MMAsivr0TEA5EiBFJE4AAjzmaUfS/zfczOnzJIX1VmPG1d+zMSa6kq1AIRaziDgPOMMD6kwB2r1LcRS6VI84oAE08dk6C9id358/hlSPtaZ1/0/TjZEMHMvx5zSzUIoCDNFjNjRJsQcIQAM3Sebchuh3JisTt/itjbDfHlJBJ8tCGCP2lAiVMNAv4HwDwG+CMShYBlBFgTwUqmuVCOn/1YcP6UK/qokOOusy/6fhxkiOCvGdFcltRNcTngegALG+GRyBQC1hCgblHH6nQKMfb944g3/PXKEH1UjBj2o4m+H3sYIpjHPqy0VIMAntZ4lxUmiU4hYAQB6hR1q58h9/yZJedPUaKPssKP3UkwBcsKwb83oqw5mQwCzjeEbyg5YK2Eg7PZJS6HqAkBIVAdAeoQdSml+iO5HbLm/Mll+qic/thfWddmao732AnN6WMSGmubzVINAsgzpsRUadzqxl+/TBsB6o6VtLK5jQ71atH50zfRR4XCoO5+ptpmHid5yRDRFlPRphwEPAlgq7TtuEYvBEojQJ2h7tTtBGLs/yxDa/7djKVvihHPfjQxUKHvn9puMUS41eQzKQcBFMDjAMyeC5xehYAQ6IsAdYS60s9op/CZVedPZtI3WeERq0VOtAsNEX7FBNX23jAIuMAQ1qGFmUUyVrTHNlEsBBpBgLphpZBMaNvA/iw7fwoIfVMduNTRJ/3QRDvCEOFMs0hHarWlHgSQfztYZZ7oFgI1IUCdsJJCtg6HZN35065b4t/h3XK8m6EAgMK3bjfxBt+nHgSQh2cAYFITNSGQMgLUAepCHU7VSp/MahhrYZ+iskmfZAVv0jldMbcpxog/pChXIr5OQQBwF4A1IuaRSBMCdSJA2acOWHIcoWn14PwpI4ca4yN9/kR7kzHi752g3PYbBQHAywD+zTYbRb0QKI0AZZ6yH9qhWuqPzt9DrpAZsmXN+4zxkj5/uvZXYwOwvgyQg88gwNImzLoMzK+ypEmr5aDoVQg4RYAyTlmvS4+s9OvF+VNM1zfGT/r6Se1cY4M4atII7H6gIOA1g/gqgO9mBapYUlNNCHhCgDJN2aaMW3HSddHpyflTRq0d26Svn9T2NiaYD3cnMpg0GnsfKAiYZhgfA7CLM/7ak0hRHAIBJluhLFOm63Kolvpl6XAP0/65bHAs1nhLXz+prW5QQDeZNArbHygImN5IXgtgHdssFfUJI0DZpQxbctB10urN+VO032uQv/T1kxoj1aeMDebiSaOw/wGDgIuM8aFOo/GvrJ7AyQDeaJ+1GkEiCFBWKbOU3Tp1w1LfHp0/xflyYzymj59IAdyrj3SoloSKCvaW3kE4+F9BwGQ5fLpzWsDT9KEDUdUQuhCgbHJ3P2XVkh2tm1avzv+tBvk89KH5CwYH9MMuBfT0VkFAfyPKHNYbe2K0xuICAcokZbNuZ2qt/3Ocrfl3C+uPDPKbPn5gW9vggP7RKWk8cFCGv5hVywEDDSp3Ei9umLci3QcClEHKojXH3AS9np3/0kZPdNDHD2ycwnrWoDDzeI3XxiDg5wZ50oSBeR7AfwCYxyvzNa5oEaDMUfYog03IurV7MLeJ5+W6Yw3ynb59JE+sbWqgYrwAYNFoTcX4hM0F4HcGBa4po/UMgMMALDI+1OpBCAxFgDJGWaPMNSXf1u5ztfPS3/Q19DnW+ELfPrJ9zuDAyAgW1PDcFgRwu1HeNKUoLwH4PoAVPAuCxtYKApQpyhZlrCl5tnifPwGYrxUONXdTq8Wb6NtHtoWNrm1QWTYYOTrbFyyZVXF6SAZopAH+Z5ZW+HzlELAt7JFQz7P8lCXKlEWH3CTNf8mCpEk55iPhYygy6GOaxDTUvZiBcqGiIFxhdJA3DDvjWHTwkV+3isF8DaGEuEo/VwHYInKeirz4EKDMUHaqyFyKv3k8gZk3np+nj7HIX/r0wm0no4MkY3YvPEq7F74TwIuGedSGAt0E4FNFNsHYFQtRPiYC3CBFGaGstCGjVu/5XCKzbfQtVnm0Yxnd4BqO1VKVjEQXKDNYo9duaXippk0l4jQl18K4sVJNCBABygJlgrLRpmxavDePYacww0afQt9ikUfctzJvWVW3XKL2vLKDNXr9rkYFMgYlojL/J4CljPJeZI+PAHlPGbBq2NvWI2Zi3W58NpjogT6lbbyr3p97WEq3bQ0PmEDtUXrENn/wFeN8qirUIX/3m8wJ7KV6AzYVoCTVzNNPXpPnIWUoxb6GZpUryZeYL6cvsczfj1QBd06jSYFyRnGNfLUqAzf4G4tJKXI+xfTKnbI8K/tpJRcyqAWDSWbSHvKUvCWPY5I5q7QcORhuV9/Qh1jeb/X3LG/FHFU5cqZxZbkNAAMZ7427U1lww6oxiZFuKv252YawrZwnNfGqG7N3eEceWjbgMepFDHw8AAAgAElEQVTG6QBm8Co4XeOi76APiZEHRWkaq1bO+4wPniCxLGcKbTYA/+OAX0UFu8nrmPXtlGza+N0AZkpBmIyOkbzZrMMrZeqrx3ExLTkLlaXQ6DuatDN13Os94zCKT5Z3OQBh73FAMPRbTnVe74BfdShCqD4fzU6ZHJNNJ69nSC68k0pekCfkTSg+q5/JWF6T0OkZqxlxu+WWmWPpw8dquzlQKmbx+uhYKNj5MTM5PuKAZ92CHOv7BwBwOpSnMZa3IyLmKSXWxJzYkwexyocnuojz681LTrEBfAwATzhY59/OxYY7/CpOLXtwKMxrsMnwobr59l1KXdqK8lJPWBp2z2z/ADM2prBOWrfSEENiSUyJrQdbZM2xcOMkk4+l0LjM94oD58+U8awkG6R9yQEgVDquC741CCLxd3KwE55ZM5bd9PJ8+QWZ3O0LYA3tHyikNFzHJ1bEjNjpjH77T6IHFuKc/YvWMn7yrdv2BD2iySxCXjbV8AliGfuyOnIETGuqs87tG89upaQOXZrtSt8fwLoJbaYaJqzcUEYsiAmx8WJnuvlu+f2VIdaRhwlAJN9xWelvTh6angYwd2hcD3cCDpXx3mynMCvreW9LZClOn3TEN8uGtB/tXJbiMaOLM4X9VqeOxabZyRXyzdPyATcicUwcG/Opc6wcM8duNeV4P356++wxAIt6N5LZXpJlne0l4exv8EZB8KSsqQQBPMfuzTClMB6eXb+5Mw3O4Jub3qZ0yq3GGByQpsUAbAyAG4ePyJbbmE78Fp3DN6l/3AT33uBeJL4OORt8vyMbSbtRuOxvWXb8wBFQdCKpBAHHOeNbCgHAsDE+D+DGTp36kwAcnVU5PAgA9+owze0OWfCwDYDNAayfBRGrd55ymAZ3WGIsfkfjwSci/oa/5Tli9sU+2Tfv8c3OPXlvrtOzet4LkjGTjn6QnHGWxntb2mEBqBPqZNoKDneXMwjg9KTnxqxodBiDlF2fp4UNj8UyRejDnT++52eSA2FAGbg2gf0pLATlrfojdXi5uh2Z9fTA/YzcnxMIAlYEwLrd/cavz4SLZEAyQBngJkzOAHlu3P91n0NbeFoTTHuTo6MS3UYvhSCA07jdY9Z74SEZkAx0ywCT4HhunO3lrG/3mD285ywek8A10nhkxwNovWNIIQg4wynvenmp/33qqPhaH1+5x8tzWxwAbbxHGfp8k4xjhqE7nAJ5DwAKitfG86Ee6jt4VGKNyadxtsBXntYYtkHUuj2kTadtt8CLsjTe2saeDe4wLkuoleu9BwHMtObpSKcVuRKdfm2GZd7y6BjTLXttPJ56t2N/xfTFrTQeAbIs+MNo9x4E/Jtj3g3jq77zq7PibTXefqYV79HMTblnzfOM53nNwNj/LjxKwejRq+IxamT06LX9yjHvvMqkxuXX3rTB2194NW6dLIZ3OrZxzL3RekbbrzoGmArpOQhYDQArfbVheHRP4S4ZaFcGWPWOx4M9tkUc71PL9SaKIk1MMuPxWEUOMl89BwHHKABQACQZSFIGmK7ZY6Pzv925TPM0A31vFG0LAMwd3e00vb3nOlJj5ywb5Op8jqpgeZM5jce3TWmTv8wCGbxiXIN2a9Ct3tApMtUmtnXfm76WPjeq9m3nAQCZeh2A10WFehhidk6Ad3UrpfqXs7YkA58KYzqi6mWuzDFek4Ato6+NrjE3AHNIW1KCKrRelhVemTk69McjiJXcUlCcKvzWb/zrdGo8/vV45iLKX9MmX5qA/6GPpa+NsjGHNFMSeleok6NEfzyi1k5gGce7XGp8/m3PuDxmwZi3jmcqovw1bfK42MT+e/rW6Os0fDwBRlBQvh6lGoxHlLdyz7ErtOjzb7Rj4/H3xjMRUf6apbBjw7kOeuhbTTTWCa8DgNj63MUEN4oTyQ00TyXCu9hkSfSkYTPa5PPjABYobg5MXLlHIvaKPtVMY05p5iduU9ibuDfP0L/XDFeKEbpXAnxrQjZ0D//6b43H3jL+fRgAlzSs8aEsvfSl5uo0rOo8S2DOxOcArFXMt5q4aiYANyagVDn/9OrfgIrHr51gmtGEBSpG5AaJ+Bdm2qUvNdl2T8SR/BXAMiY51J/oDRPhmxyDnH8KMsBz4+/or+omP10ZwJOJ2Cj6UNPt2EQYxZzTrzfNqemJPzMRvqXgADTGtAOd06ZXbdP/sbjP/YnYpuNMc6pDPKedzkmEYf8XwBwemNYppPFsInyTg0zbQXrm/zOOMpgya+mfErFJ5wJws2QzG4ArE2HcWU4CAA7jS4nwzLMD0NjSDm6+6MQeMVkZk7ClIM9XAaDPdNXmAfDHRBi4vRPOMVe4jgWmYXRSMKypjfEJAEyP66Htk4jvuAnAvB4Y1m8MrNLEKkbeFZHTbq3Xae7HgAqfHZwAv7zLo8bn3+b04/F/VtD3GH/CXfAvJWCH/tJZeo2RB8FoenMi1ec4jeNhDYcVEFNQvn4GVJ+l6Tg98P0FAEzsZb2x5G0K6/5M0rSidWYVpZ9553l+3oOiDRuDl/W3/0qAV8P4qO/866o3HrvYQQ7gqARsz/MA1ivqPL1ctzmAV5wz92UAqzlg2PKJZNzy5gQ0njQDF2Yo9ZCXhD6COQw8yzF59X4HPqLSED4AgFNVnhnM6SsPOzrPc84nzzKosfm2Mb38PbuSNY7rR8yp8ohzm8Ol1a3jgr15apjS0ftO8yObhzX4Hddxroy9RlT/p+U0PfF7zeDa33yHFzq3N08DmNI8rHHecRUADzpmOKexNo4T+lJU/coxjzw5AI0l3eDll6U0Os6Ld3NuZx52sjQcVHp4bO52x4xn+krr5ztZ+VDORRhIBuKVgc2CWuXmO1sBADfFeZUx+jgvR8SDSwfXfa5xzPwzgiPWbIfMxpXCkRyvxkfj8utYyNsbmjUHwe82S7Yh7g+O7f/vnNWLCS4A7JCZqzynfPxoLag11ymzHMqRCAPJQHwy8InmzEAtd/KcdOxSAHPWgprDThkJeq1G9yiA1xnmGXmTSjUuObn4nJx40p8n9wKY2bBd4VHjfzh9uDjVOG9aEStONx8IgOckvSk9x2W57eeQJ95kTOPxZzeG8XRvywYl2xR3vkObQt91gHG+tE7+RgAeciYcfzeeppMzGN6Pbg4ztvouLecaO7+ZRtby9DKPgseOcVn6HgDAcakFQICbA7mGUpYJMV9/TABc2uzC83pdzHIj2nzZgRD8/HqbhiDAvbk5LgQOsfRxCYAFA+CiLroQ4JLAFxylD2aa4KW7xmftLYs6xaJwokO8SFkGlrJmPLro5aZoL7xjavt9u8amtzUgwIx03PDiQWi40dFyu9YJHzzIksbgwyaU5eNvDRuQWQHc48SGcBwscqfWAALzATjXgeAwQ+DbGsCrrlsw2i1rsHS9MJMMhJOBvepS7gb63ceJ/fiJgyRvDbA7/C12BfCkcSG6PDwsjfW4qKoEKgAyrn+WgxHuMn9jY9oe9kZ8iHvCuOxwIzR9kFqLCHCD4PeNO6JNWsRv3Fv/j3EltuwARHu4J2mLWFp+eDjCsN3gzO1Jxk9yjWv3o/s911+sphHmWjo3OVpsuxhWZItGXzSn7fS7+f9piwYDADctshRu91isvGeqYu5DU4sQATrRnQH8zaBwWU0RPD8AnmiwosCiU7zyIAMvApgnQhtchCSLWV6Za4FVCmcsMkBd0y4CXF/6rrEsgncZThd5kQIABUCSgUZlgJugLba1sgyvnEK3EoT9E8DxABawCHbqNK+WZWNifWwrwraTUYZ9zBDGVmRBdNrR2zZ4tZVRW/FTQ7biagBrGMVZZHchsG523I5PqbFHntd10WzpLdOQPmtIsdsw2LqnHHooGXgGwOyWDESHViY+4xN1KBzq6ofVaKcYxFckj0DgLQBOj7zq1NtHjCHWr88woNh1GQz1G79R98SjU2I1AiPoOixiG8EjlWcZz8syAn59nSPAXajHAeBGmtgMA0tHWmzvixDL2HgreuLTN4s82cyggZgNADfSxYY3TyOcCGA5g5iK5DERWAjAIVn+Zk6pxSKYDEosbjiZJVIFj4WvoiMeHbPMi0cBzDSm3Wvj59tHZGPJf9p8zkgs0gYYumdcCLC8LQWUiTU4FdS2gfh8XPAUpuaECLBrm3e6f/v645kHVquIxlDxj3vArgLA3CXzFrZqujApBBbuVHTihry2DAmPBFpMDLRhi5i1xSvdtz09SRH79Qxa4zVbtgs3Zcu9+2fZ+xY3iJ1IbhGBlbKz+Qe1VH3Q4jofgxZOUaZomDVm8b1uGXigRVs4zq2ZNrdubHr7J1ac4udRcDUhMBYCdGwbADgSAGcGmjjKcsFYFLf347NbUPZe5df/zRtcYV4/5jzBZK0xU+gLDdmEWzubu3mEz+IMqjXeJksvhXpLAEcBuLGm/ALci2BxyuqzDSm7HE79DkcYx4Wxxcpz+9VoD+4AwH1H22bZ+rihW00ItIIAKxJuDeBYALcEnCH4RiujGe+mq9So8HJIcTkk8aNZfiw/nmo2/ms+hXM/Uyg5YV+s/PoJACxFriYEokSAZ15XBcACPwcC+HE2Y3BDhamwRwDweJ2lRqWP8bxvKCOkfsIZdGFZHEvaAmtt8wrO/5Xsif42AFwCPRTADgCYyZWzrmpCwDQCdI5MQrQFgH0AHNwpNMEMVEw/yXLGdwJ4rCtbocUqgVReGXdhIBkIJwPcW2OtXdyxAzx+93TmzO8D8MfOUbwLM1vIpGdcRv1itrfqAwA4wzGztUGKXiFQFwJzGz2vyuBGxl8YSAbCycCedRmZGvvlHiZWZlUJ3RpBVtdCIDYE3qYAQAGQZCCoDHBvjZoQEAJCIHoEGPFzyk9PgMJAMjC+DHBPjY61RW/2RKAQEAI5ApbqfstJje+khGF9GFrNCZLbAr0KASGQGALc2COnIAwkA+PLwL6J2Q4NVwgIAeMIrKMAQAGQZCCIDKxh3BaIfCEgBBJDgMd5npMDCOIA9BQ9/lO0VQxZttZi+d/EzJ2GKwSEQC8Cv1AAoABAMjCWDFzaq1T6XwgIASFgAYEvy/iPZfytPrWK7nAzFixjqyYEhIAQMIcAKyjKGQgDyUB1GWAaXDUhIASEgDkEWBOBVQ3lAISBZKC8DLxssBaIOSMlgoWAEKgPgbsVACgAkgxUkgEWxVETAkJACJhF4Ocy/pWMv56Yyz8xe8OMxXTUhIAQEAJmEThaAYACAMlAJRn4llmtF+FCQAgIAQB7yfhXMv7enmY1nvIzGrvLgggBISAELCOwmQIABQCSgUoysKllxRftQkAICIGlZfwrGX89MZd/YvaG2RIyH0JACAgBywiwNPBLCgIUBEgGSsnAiyoBbNnsiXYhIARyBG6V8S9l/L09yWo85Wczbs6VR69CQAgIAcsIXKgAQAGAZKCUDFxgWeFFuxAQAkIgR+AIGf9Sxl9PzOWfmL1hdniuPHoVAkJACFhGYFcFAAoAJAOlZIA6oyYEhIAQMI/AFBn/Usbf29OsxlN+RoM6oyYEhIAQMI/AogoAFABIBkrJwJvMa70GIASEgBDoIPCcHEApB6Cn5vJPzV4we15HAGU3hYAQ8ITADQoAFABIBgrJwI2eFF9jEQJCQAicK+NfyPh7eYrVOKrPYJwvcyEEhIAQ8ITADxQAKACQDBSSgZM8Kb7GIgSEgBA4Ssa/kPHXk3P1J2cv2LGEtpoQEAJCwA0CBykAUAAgGSgkA9QVNSEgBISAGwT2l/EvZPy9PMVqHNVnMr7kRus1ECEgBIQAgD0VACgAkAwUkoG9ZDGEgBAQAp4Q+LSMfyHjryfn6k/OXrDbwZPiayxCQAgIga0VACgAkAwUkoFtZC6EgBAQAp4Q2FzGv5Dx9/IUq3FUn8mgrqgJASEgBNwg8A4FAAoAJAOFZGB9N1qvgQgBISAEAKwm41/I+OvJufqTsxfsVpfFEAJCQAh4QmAZBQAKACQDhWRgWU+Kr7EIASEgBN4o41/I+Ht5itU4qs9kUFfUhIAQEAJuEJhDAYACAMlAIRmY043WayBCQAgIgQ4C/5QDKOQA9PRc/enZOnbUETUhIASEgDsEnlEAoABAMjBUBv7uTus1ICEgBIQAgIdk/Icaf+tPr6J//JmLh2UphIAQEAIeEaBxk5MQBpKBwTKgAMCj5dOYhIAQwLMKABQASQaGyoCWAGQohYAQcIfADAD+JeM/1PjryXjwk3Eq2GgToDvTpwEJASEwl5y/nL9koJAM6Big7KUQEAKuEFhIxr+Q8U/lSVfjHDzbQV1REwJCQAi4QWA5BQAKACQDhWRAqYDdmD0NRAgIASLwVhn/QsZfT8aDn4xTwUbFgGQzhYAQcIXABgoAFABIBgrJgMoBuzJ9GowQEALvkfEvZPxTecrVOAfPdFBX1ISAEBACbhD4iAIABQCSgUIysI0brddAhIAQEAIAdpTxL2T89WQ8+Mk4FWx2kMUQAkJACHhCYG8FAAoAJAOFZGAvT4qvsQgBISAE/o+MfyHjn8pTrsY5eKbjSzIXQkAICAFPCHxTAYACAMlAIRmgrqgJASEgBNwgcIyMfyHjryfjwU/GqWBztBut10CEgBAQAgBOVgCgAEAyUEgGTpLFEAJCQAh4QuAiGf9Cxj+Vp1yNc/BMxwWeFF9jEQJCQAjcogBAAYBkoJAM3CRzIQSEgBDwgsCMAF6U8S9k/PVkPPjJOBVsXgAwgxfl1ziEgBBIG4El5fzl/CUDpWRgsbRNhkYvBISAFwTeJeNfyvin8qSrcQ6e7djYi/JrHEJACKSNwB4KABQASAZKycBuaZsMjV4ICAEvCHxbxr+U8deT8eAn41SwOcKL8mscQkAIpI3AJQoAFABIBkrJwIVpmwyNXggIAS8I3C7jX8r4p/KUq3EOnungsVk1ISAEhIBpBGYC8LICAAUAkoFSMsBjszw+qyYEhIAQMIvAMjL8pQy/nooHPxWnhg2Pz6oJASEgBMwisLkCAAUAkoFKMrCpWa0X4UJACAgBAHvJ+Fcy/qk97Wq8k2c+dpcFEQJCQAhYRoClTWXchYFkoLwMfMuy4ot2ISAEhMDPFAAoAJIMVJKBi2U+hIAQEAKWEbhLxr+S8dcTc/knZm+Y3WZZ8UW7EBACaSMwG4B/KABQACAZqCQDPD47S9omRKMXAkLAKgIbyvBXMvzenmQ1nuqzGetaVX7RLQSEQNoIfEUBgAIAycBYMrB/2iZEoxcCQsAqAr+Q8R/L+OvJufqTsxfsLrWq/KJbCAiBdBGYGcCzCgAUAEgGxpKBZwAwnbaaEBACQsAMAm+X4R/L8Ht5gtU4xp/FWMOM1otQISAEhACALygAUAAgGQgiA/vKoggBISAELCHAJCZ6+hMGkoHxZeACS4ovWoWAEEgbgRkAPKkAQAGQZCCIDDwOgDqlJgSEgBCIHoHVZPiDGH49PY//9OwFw1Wi13oRKASEQDAEuPN3fgBLBOuxuY5UAVCOy4vjjWUcezanvsHuNC+AuYP1po6EgHEEmBqXkfw2AP4DwAkAfgyABXN+k31+M4AHe47PWSwI8hPNAGgGQDIQVAbONmj7tuvIANOBPwbgTgDXALisY/eOB3AwgH2yz7cAsJSWOgxyWSRPQoBP7u8AsBOAwwFcAoBFcV6tYBQ3n9R7/B88UmGcsTxpiQ7NXsQoA9Qpa40PPHT8ZfB8AcANnQDhQAAfBbAqAPalJgSiRGDRLLr9BIDvdxx9GYEfdi2DBmubf5YvqfDDxq/vyhlP4eUbL+qWtXZYIHvwTwC3ADgWwNbZ6+utASF6/SCwEIBtO1P4dwQS8H7Gez+DkO1SIx79MNJnvp2e+DuNv7satAdLZ8uddN6h+fgvADcCOCqbMdiys1/KIDwi2QICfAqfAuC4bErq1hqEuZ9ycCqMSwnW2g8bwqcfZvosvKEVpvFgero1Y9Chl/UM6pYjBhnXATgSwAYGZ06NstY32TzOximsBxoQ4F4FOckotPe3gFUvdvq/foMrjJvHmHbIYntvCzbhXgAHAVjJImCiuT0EFgfAEpw3tSC03UZ1zfYgqHzn9VrGrBs/vW/eQQnz+jFft7J2tvfDGQH8uUXbwJkBplNeuD0IdOeYEeB5Va5dXwWAa0ttG7LfxQzWENq+GwF2bfNO929ffzzz4Ogh+hfzV/8egW3gKazLs2Bk+2yp4HUxgyXamkFgkc4UP0tuxmQ0KKDWGhMX/TUyHGPiqWiJS8es8oPHAS2WB+au/Zcisg+0+YcA4IZutcQQWA7AiZEJZG6QmPfb4pnXzSJS7hxLvcrpepSBTY3a6xg3CL/Y2dzNJERqzhF4G4CzKibkacqQcNOhxXaqAoCoZpGaklfdp/kgy+oGYe5fiFVemK2QpyzeYtH4iubhCPAIH9NPxip8OV08ysJzs9ba7Nkmm9iWUXJM9Rq/3ItH5Xj0VJZCd1ZrRqJD7/WR22HuAbso8xcWN1saFYn6yOYT/9WRC1y38ftpfVDU2jMzc3WPQ++Fh2SgXhlg8huLjenRrcjGLwHwKLiaMQSYQIdJe+rIQFWX8DLyXMsYzjm55xpS6rr4p37tGHYPvOJSpsU2c+B06XXzkicHeLppPotgp0YzM/btDOBvBh3SmUaZNU+WN4EbaepWRPUvjCUD02TgeQBzGbUZLPBjjZf0KfQt1mqzGBWR8mQzcQ7Pz1sTLNLL4zFWd6HuYBRzi3Iimm3qd118YwEyi41O9FqjdoPljNe2CLpXmhfIznKyrrSl6f5eg3CEYeYwsUbvePS/MJEM1C8DLDNutW1i2G7Q17DyqyoStix921WoNx2bYXrC8PrSGyM/Uhkbr0VP/U4xJYxfAcAHIKvN+sPDkwAsVmi0Ki8TdDONI89selD2fSZGZe/NXk544EGONAYf9qAsHy07IJ7SiiH1elnMe6/nJmhtEmzIf1Fo7nTieO4xfJ6X7P6tEz70KrT+T9OZWuT7/zRkd+u6DTc/W8S9l2ZWH1ynLpDU72sI7B1p+t5eYSj6P3fDWm3ctFh0nLpOWEkG6pEBrkcvatWIdBKfvezElnBJ5gs6KRBeGrnOdaETIckNodWKfzl3WWs7H4tehYVkoD0ZOCBXSqOvxzizJZdqg2A4SVwfwP3OBITGcoNwEDXeE/dgcAOMjL4wkAy0LwOPGi0glhuuNwD4uzN78hCAjfIB6rUaAoxsmYnJm5E5vxoc0fxqX4c88SZjGo8/uzGMp7tFYx2qEXKgQ5tC38VxKXlQSZlgukiv1eVYdWr5knjEdPksTmdkhhlXfZeWM7XI77sAzBiToShJC2cVOZNhEftRNHOjI+2mWgEE5swyLXENZRSoVr8/uAAGMV+yvWPeWJUp0e3XXpTh7TYxG44CtG3r2LYw5wGDHLUhCDCzktV0vkUU9Q/GI0FOZf3JsZIW4aGukbONVQaYXtd683IssJ+MkD/c76DWB4ElAdzu2LmweMcKfcZt6aP3OeZPP4XVZ3L21mRgY0sGpQ+tTKjzgGM7wxw2S/cZd9Ifsebyw46ZTiNifZMOBfRXznlkzdiLXgUovTJwmQNPsqmTDIG9vMn/fwTA6g74FGQIUwA87dyxMIeB9baucx7lyqlXOVXrMvBW68YmS617lHN78wwA+r6k29bOMvv1MxyM9jxUjeLRxX7j02fCRTIQlwz8yIFXmR3ALc5tDsvAW9+4WVnUPuD0jH+3MWShi80rIxTPD7l3wXK55W6e6H1czkr8CM8Pnj9nqm7rbQ0ATK/rWUbIK/rCpNo7ALzgnLEUWk5jeWisfe1ZCTU28debDHzXg+HJAgAmg/PGm97x0BfSJybRVgbwRAJM5XE5TmNZb4sksEzTq5D637/R9c5jnjrysPQ4E4DfJOAv6BPpG123xRLJIse1nVWdcPLQBJTPuzPQ+NIMaL7uxAYtC+DZBOwQa97QR7ps82cbHm5OgIk0tvs44eA8CZzQkHNM0zmmwPfHAczlxBbtmojv4MZH+kpXbQ4Av06EgTyH66X4g8cCHSkYfo1RQU0uA1905Em8lYTPedT7Sl9Jn+micQ3nokScP9f9mcnKQ1sikY2avcqn/+U8PckAz5sv7MEgdXLpM526J/4MGgt9Jn2n+ZbKDnKmr/S0fnNOIoo2SAH1eRqGNgU+n2bei0wbwEIA7knENv1g2rBtvts7EUY9BeAtNlnUl2qm4kzBMGqM4nMKMsB8JJ6OmbGc+mOJ2Ciz+8mYjpK74b0rGMe4YV83avPDmRPIwOVdJjU+/3anLI+vAzCjTZPUl2qmJk8hl8zLANbsi0DEH3Ln6R0JOH9mx/OWynHfBPhW1njqejlUDzLwmYh9RhXSPphANlnK3V0A5q4CUFu/OTURJ8IlDk+N62veCzN5MOQagwKSKjLAY4ELeDJYAHZPxNecaYVvn0qEIYdZYUgJOk9JhHdVjKd+I6frQQa+V8IeWLn0oETs1o6xM2Q5AH9PgBmnOzrrn8vUOs5rcHsw3hqDgpBxZYDLlh7KBed2K39NYdb5OQAr5gOO7XVWACmc0fwFgFliA39Merg56NoEArdxjad+LwfsQQaYaMZbo02+PAEbdmOsNWa+kwD411vbjFFQy3dJgHceDLfGoAAklAxwqdZbex0A2uhQGMXaT3TLOFskADp3YnrJqNWt+Mxc+LcE+BerMosu/wY7Rh4/7PRhhjaatjpGzEPS9KFuI97me5a8/bNzwO92luWvW16Occ67kEqnvvwb1pR4fES3IXD0nhlZvQcBD8ZS6Ml7wRimnVzckXJ0D4Uli19VAOD+aSElp6axFg/SXol5U1m3oarwPoUg4OAKuAT9yZLOszF5dv4UhKvk/OX8JQNJywA3NXtt3oMAZgl8c5vMO8+x8eCyBivieW3K+Ff8SUlPlcLKswx4yxDYbbO9BwGXdg+2yffvduz873Xu/JlbmtGjZ6OmsYm/koFiMvAigFWadB4N38t7EPD+hvGcen3bKlwAACAASURBVA7+VqcOhM6fSxteG3NKe98gI8NfzPALJ+GUy8AtAOb0avQ6m7i92j1uUp+tSd593qnzv8+586eMMIthrvR6FRaSAclALgPm68+PcIKeZwK+PGLswb7mOUuP6X7p/JcKhlKcHX1azl/Bj2RAMjBEBj4Wp+kKRpXXIOD5pk6rnTZEePJI0trrXwAsHUzE4uxoBQDMJW2NN6JXPJMMNCcDz2SzhMvGacKCUeU1CDg7GEIDOmKxHxaT8KSQKTh/rg/d4IxvnmSw6bFQhzmLx2xw/ON7b3rdNKae7se6IN7qnfS6NI9BwL8ArNw70JD/n+DMidwPYJmQAEXal7L9+QpaOd3HoiDnZ9N+JwE4GgBLon4JwF4AdgCwDYDNAawPYPXOU90bR2z04iawhTrX8jf87Xs6fbFP9s17fLNzT977AgA3Oc8H4sm5Fx3LtyK1ZSHJ8hgEnBwSoO6+aBh4XKSoAMV+3QOJOP8POuJZ7DIVkj7q2s0dB3s4gF2zxE1TALwp0lLUM3R2Wm+czSrslqUpZZrZCwFwd7knuxGSxzH3xafJ93Y7AKfvvQUBPN5NGxG8Me1gzAJbhjY6f+/rXBQACvcTjvhWhscWrqWy3gbg4qwwC5+4dgewaScHBR2ql8Zy00yqxbFxjBwrx8yxKx9FvHb1MQCLehHCIePwFgQEr/HAs+NPO3EkrHy3/BBh8PLVTAD+1wnPLDjzIjRygxUzd+0PYN0E1lmL6BLXmokFMSE2xKgIlrqmGZyuBMAAzntjgMoCOx7kint65g3JsC84AeZZAGuFBCbivr7uhGeWFfLxzhQ+0y6vAYBBmdpwBIgRsSJm3F9ADC3LgAfaWfAthcbiaF4edLlXJ0ibNVt/fMiBErLyFdMXp9A20q7uVpzGIwB4FGfPTmpVT9P4bekNMWSaWmJKbImxB6dqaQysGPrOtgSg4fvSdr7kQMaoJ0GyA+7sAAxuaPGe4CLXE+709jKVFbuR5F4SZlbkBr0UlpVyGWv7lVgTc2JPHsQuJx7oI86vb5vxDd2fJ2g8HIvdZVy8uPZzuwMF+9y4QBj5PfdqXOeAXzEbzEcB8FjlekZkIgUyyQvyhLyJWXas03ZNdrpjrhQEqnPk1Tq/6LvH2r/BM8DWQajtXGRkisClmisc8CtGeePGtFM6S0hax49M8LvIIW826/BKmwnrsd0/T2jzKn1HjPaoDE304ZXbD40DwGNGnitc5YzlOumPjfOqjFA3cS3Prp+bJbnZCsDsOdB6NYMAeUbekYfKQxDWkXHpJYX9LfQd9CFN2Ju67kEfXqnNYbzoD5V+tUojt/ejo4wLaV3CX7Zfbna6HACLJs1jTwxE8QAEyEvylLwlj8vKha6fjNmRA7D29jF9iOUAkkcC6ctLt48YV5Q9So/Y5g94floGajwMftNZ8+MGSjXfCJDHTGlMnktvxsOAx8NTaPQllmWFvrx0Y55xq4M+r/Robf5A5X2ryyjPl/9nAiWgbUp2M1Sz/DdlQNkyq+kRT1dt1wyrWr8LfYpVf0hfXqoxi5DVs5A07AuUGq3Ni5mn+x+GhbItZWL1R54KSWU3s03pbpZqysK/AaBstCWXVu9LG7RFs+xq5W70KVaTUtGXl8oMuKNhRfhMK+LR7E3XAcCKcFaNRht0s2Ldp7KqeTM3yyrdzRAClA0+0f5JulXKtjwHgDbJe6NvacN2hbgnfXrhZvU4Gc/Aj3XusTBC7V24ouFINIQgl+3jqkSeUNqTSH935g7396mWRilnx6fjFfyJwnQjom+xmmeFPr1QY9lfiztluR7lPTkLK3PdZzgKLeu8q17PLF5c90rhqaSQUuuiygjQprCsMe1LVXlM5XdcQqmlFG1l7oX/IeXBoizQp9O3j2xcH7UosKeNHJntC+bLzjVzGtsib5qimWtd30/gScS2JNukfqWspDETw6h88XAbxOUT2irPjb6mKZsW8j6FMuLyrGzImzbRF9egCkU3RqWSSU1+ZZAvTfCe92DWt8MALGKUvyLbDgJ8wuUZeJ6vbkq+rd3naufJs+hr6HOs8YW+fWjjJhiWzLU2sKOHjsr2l+QJy6Ja40kT9HIj5H8oaY9tATdKPZ9yWXL7BelmX9vEZRPPG26/Y5Dv9O1DebK2wUHxGMqSRo3IKLLJrHMM8qQJ58/SsIuPAlDfC4GaEaDtsXxGvE5dpe0a6nBq5k2d3dP2sMR8nfjV0Td9/MDGzE513LTOPs8YOBrbX8j595fFm7PlkI1ts1bUO0TgXQBuNWg/67TN7NtzEHCqQX4Pzd54scEBre7QmMj5T3b+T3eStXh9onAoxskNaZZsb8B+nT0pdTtWS/17DQJWNngigD6+b+MZx6eMBQCX9R2J7Q/l/Kd3/jxyw93XytNvW65Ton5hANwpbvG4WF2Bhdcg4CJjPpM+vm+uHD5J18X8uvplOlxPTc5/ehm8Vmf5PYl3cmPhmfE/GLSrddlrj0HAJgb523fWfG9jA3nM2QYTOf9pzp+83WVQpJqcG9GALSPAp63dAFCm63Kslvr1FgSQvw8b4y19/aR2rrFBHDdpBHY/kPN/zTgyW9V3Acxvl5WiXAj0RYAyfazRLKuhAwxvQcBRxnwnff2k9ldjg1h/0ghsfiDn/5rzZ6Kj1WyyUFQLgcIIUMaV1MvX6YB1jflO+vrpGrNbhY7y6uyP+fBZsMN6k/N/LbUqS7GqCYGUENhHaYVdHRG815gPna5mwxRjxB/qwFLI+QN3AVjDAS81BCFQBYE18ZoO1PmwFHvfXpYDDjHmQ+nzJ9quxojnlIvlJucPMIHT3JaZKNqFQAAEqANnGrO/oYMKD0GAtWUA+vyJdrghAWQRBibcsNpSd/7k3w5WmSe6hUBNCOwEgLUtQjtXK/1ZDwLokywVCKLPn2iWis1cMUG1vTepO/8bAaxoj22iWAg0ggBLDqdc8tt6EEDfZCXgos+faMyvboXwr0xQbetN6s6fxzZZ1lhNCAiBwQjMAeAEQ/Y4tN+wHATQN4XGo67+6POnNiYyeNEQ4e/MCTf0mrLzfzJ7qtnKEK9EqhCIAYGPAGD9i7ocQMz9Wg0C6JtixrWbNvr8qSmBlzBG9GwxaGcJGlJ2/r/J8vhTvtSEgBAoj8DSAK4xZJ+7Hcy47y0GAfRNlh6mp9rmTQ0J2O/L61Crv0jV+f8TwMHOUjW3Kki6ebIIcHPZEYkWFrIYBNBHjRv8NPV7+n7sbohgHpex0lJ1/o8AYG10NSEgBMIhsAWAvxmy1aGcmLUgwNKRTvp+HGRIqL4WTp9q7SlV5399toGJpVDVhIAQCI/AYgD+ZMhepxgE0EeFGnfd/dD342hDBH8yvE4F7zFV5//fSuwTXJbUoRDoRWA+AP9ryGaHcmJWZgLoo0KNue5+6PtxkiGC1+nVhsj+T9X5n52t+c8aGS9EjhDwigCP01rK3RLKkVkIAuijQo237n7o+/ETQwQvELFGp+r8j8mPk0TMG5EmBLwhMBOAEw3Z7lDOLPYggD4q1Fjr7oe+Hz8zQjDTZMbaUnX+B8TKENElBBJB4OtG7HdIZxZ7EGAlJTB9P642IkCPRqrQKTr/VwEwd7maEBAC7SPA3dw8ehvSycbeV8xBAE9CxY4f6aPvxw1GiL2nfT2bREGKzv8FAO+fhIQ+EAJCoE0EmG3zJSO2PJRzjDUIuNMIH+j7cbcRYllIJqaWovN/AsB6MTFBtAgBITCBwEYJpg+OMQi4zohPpe8Hp9ZDRWR19sO0srG0FJ3//QBYrUxNCAiBeBFYDcBDRmx6KH8RWxBwlRH8py6rW6lBfXkkOpei82flKCYhURMCQiB+BJYEcLsRJ+QxCLjECPZTN9ZzQ1coJtTZD0GNoa0P4B9GMAvBj19nyaLmjwF40SAEhEBhBF6fWCEh2mTa5hgaZyRC2N66+6DvxzNGiGWmuVjaNokEARcBYH1yNSEgBOwhMBeAnxux7+M4Ozp/2uRYmhXM6fvxoBEBYVnMmJr3ICC2dbWYeD+IFlZu+yiAeQddoM8rI7A4gIsBbA5ghsq9pPdDZuhkID+Og435t7E5f0oYZ01jxiynjb7fzFrRLRHq7keczgTI+ZcTNjqnbwDIz//OXe7nuroAAsyBnxuuuwDsp6WpAqi9donXICBG50/EeWItl9WYX7lPBNcaIfa+wuLe7IXeggCmh+RGR7XhCPApdLNOTvbufTQ0SmrhEZgRwL96bBVzUjCf+Zrhb+euR85OeZoJiNX5U3D+3COnsQYB9P240gixj0eskl6CADn/0ULGXN+fB8Cn0H6K/djoLnRFRQSeHoA5+fC7zPBuD2C2in2n8DMvQUDMzp9yRBvQzzbE9hl9/9R1tdgI60fPK5Gv/VkPAuT8h7uAtwM4FcCLI5SbWcDU6kGAs4D9bEP3Z3xQOAzA0vWQYL5XBgEXFsCxG9OY3sfu/Dkz+LIRfLmnBj8yQiyFkGutMTduAKOAxqQwRWiR8+8vVVwKYc2DMpm9Ytus2n9kNj/9YwndYm78n2Z/a9kcaq1UWw0CYnf+ZBp9VBGbG8M19P2mSkpuUqtahOncWhBwttb8+zKeMzpVcnpf1rc3fRgCgSoZ1rhv4Mxs9mapEAQ46sNaEGDB+VM86KNicO5FaGA5aXzLEMGfMaKAVoIAOf/JAjVlzAQqZ03uUp8EQmCcqWsWyjkCAE8TqL2GgJUgwIrzJ6r0UUWcbwzX0PfjQEMEH2lIcxkEdO8Oj4Hh3TTI+U8vTKsCuDSALhw/fbf6LyAC3IPRLcNV3rOg1T4AeDRODWAQcEEAXKvwoshvLDl/yhN9VJFxxXANfT+2M0QwnwAstViDADn/aVK0RLZh7LSA9dQPnta13gVG4KiAtorlxamfavEGAdacP2VpnFmqpoMC+n6sG1Cp6h7A1MQFxjR228hmAuj8ZzKGYR3k8jgfo/XQNdT5dKlWDwJfrMFW8fjgBvWQa6rX2GYCLDp/MtxSESb6fixYg1LVFQhwQw+LXFhrsQQBXJ9O3fmztsH+AJ6qSe63sCachuj9YE08o706PzsRtbwhLOogNZYgwKrzp2/qTVZVly8M0S99/9T2ZI2KFYLQ7j4+nBNt7LXtIEDOH9iygdoX2m1en2LSQXfbgtDv6Xi4hENHmGprOwiw6vwpL/RNoWWyrv7o8ycazy7XdaPQ/XId0GprKwhI3fkzN//JDcg4U9OqUE192sm8DEwIFtqm9Pb3BwAr1DeM6HtmEMAZkV5c6v7fsvMnU0PuUakb6+nylZzRArOrDvD66NVnOIEfa3hPQOrOf0MA9zYk3zcMZ72+DYDAbQ3x8nkAuwWg12oXTQcB1p0/+UzfVNWvNf07+vyJ9lVDhDPDl/Vyq00FAT9OeM2fOeF57pvy0pRyEW+1ehFoepc172dx31EILjQVBHhw/vRJTdqacW0aff5E+0SDRnJcwvl7bgay3uoOAlJ2/qsDuKkFmZ56rta6YEZO/6Et8JVlnjePHJe6yKs7CPDg/Il9nRtUQ/jM3j7o8yfa2i0oVS9BZf6fbvpiYhT23tQVBKTq/Fkyljv82yrGoXPl9evgji3ZKu7u5hrv7PUPMbo7MAg4rwbcvTh/Muz0GvAp4xPLXkufP9E4fVG2gzavfxbAnBPU234TOghI1fkvA+DXLcsxswmq1YvAei3z+E+ZM0yRz6GDAE/On0eL6ZPa9Ill7z1pGb2pzTVlCR10PXfUe2kfD7QxkNWdUjznv0sECsj1P9Wir18jmcBpkE1o6nMmj2LCp9ROfIQKAjw5f0o8C4c1JXsh7kNfP6mdYGwQF00age0Pxg0CUnT+r4so9eYttsXPFPVM4xvCEI7bBys/plZciEcxx1kO8Ob8qThtHJkcR3bp6yc1axsBuc47/6RR2P6gahCQovNfCADPa4+jCCF/e6xt0TNF/Q8i4juXBBYzhd74xFYNAjw6f06lh04nHtIu9etrug2AuThQiPtdHPNnn82Jd/RaNghI0fkzI1wsT4G5fmztSAZjH8onI7NVDwB4S+ygBaaPQcC5Jfjg0fkT0l1LYJDbirZfBwassRnVUUDdBYA7v721okFAis6fBSwei0zprNaosKo3b4qM/7RTrC3BpFMptaJBgFfnT99jqfgP5ZQ+fmA7JULFGhUEcAOGx8ZpmleH8OPMBDf88awt0+2Okommv7/RowBGPqY7I5QDTgVvEzluockbFQR4df7EcasIZXCU7aOPH9h2MDigaweOxv4Xg4KAFJ3/7iMColGCX+f3lutTWNWSEyO1VTwNsrdVUCvSPSgI8Oz8CZWlGjq5/aOPH9h4ljq/0NLrJgNHZP+L3iAgRed/UORyySqDas0iwPwZMdsoZixM6Zggg4Bzunji3flv3DXWmOWwlzb6+KGNG1p6fxT7/5cPHZH9L/MgIDXnz3PHp0Yuj3zi83YaxYLGLBy5XNBmMjscZTiVlgcB3p0/+UmfE7tf7KWPvn1ks1QZsHuA7xw5MtsXbJDYmj/P+FtQsutsi5Vp6i0kL/sFAJajTqUxCFjf+WC52bPb91h5XyiFvsWNDWTAHxNzkJ51jE93VkprHumZEZGP7TgjhpiyTJlWs48AM61y068Vp99NJ337yMZiF88YHaDHvAAjGebsAp5R5fHObsGN+T1nZtTaQWCKITmhTA88f90OfLprBQT2MiRz3Xbz6TKpymNfd+0eWPf7JwAsWIGp+kkcCFhz/vcmttErDimZRgU32Vnas3Q3gMWnka93xhB4QyffQ7fPsfJ+6PG/Xj5sZjTKITOO7x2M/jeBgDXnT1nj6QS1dhE4zJitYiIWBQHtykzVu3/fmKx1ByfvLjNornP81ehguSt7ulrHZQaua1tBwKLzp3Kt1Apaumk3AqsZtFMMApboHoTeR48Ay1Az42e3U7Xy/tEq++NY3MTKAHvp5HpbSjtvo9eeIQRadf7a/T+EqQ1/dZNBW/VnBQENS0n127HgD/nV62es/H9MlaHzKIeVAfajk3ny1eJGwKrzp7ztGze0SVG3v1FbxT0kSybFKZuD/YlR+cr9ImcvSjdusPmL8YHvUnrU+kFTCFh2/qzRoGNdTUnK6PtwTd3q9KyCgNH8bfOK3Yz7QMpX5WZtg00e8eSvLByTWpnOysxu8IeWnT9ly3vmyQZFIditrjJsqO/LMl4uFQwJdRQKgVUiLT6W+7cirwePAwYBKHKTmK+5GcBc44Cg3wZFwLrzp6xvHxQRdRYCAc72xWyHRtHGIGDpEECojyAI0GfQd4ziW+zfrzwuGpc5AOHnieXkHpfndf3eg/NnkiymKVaLCwFu1LKawCx3IlxyVRDQvlyxfgN9Rs4Xq68/CwGl1apHvUz7oZK2hBCHyn14cP6UqUMqI6Af1o2A9SVLytf9AEZWbKsbyIT75943+ope/2Hx/41C8fH3TgA5IhQg6qcUAl6c/4tZoqmFSo1cFzeJwCIAXnJgqxQENCk109+LPsKis++l+ZrphzXef1s7AYUg7TceFPp1SQS8OH/KDovPqMWNwIlObBVTHC8bN9TuqKNv6HWkVv+nzw7WZgRwhxNweFzo08GQUUfDEGC2M0uFfYYpO2uca6f2MG7H8d1yAHhMcxgvrXzHIGD5OGB1TwV9gtWjpL3yfCcA+uygbVcnSkWwyGjNBAQVj0mdrQrgQUcyc/qkEeqDWBE4y5Hc/Q3AWrEC7YQu+gIvzp/+jbkLgrfZso4fdqRYBIrrPdz0oRYWAW4+YfnJ3sjU6v80DsonEVZG6uztbY5kjzrzLIBSxVzqBNdR37T9Xtb8c9vKvP/01bW0f3emWASNOz557EMtDALbONmIlSsUXy8KA416aRABD8eXu2XwFQAfaxA/77eizfey279bTg6ok3HzODhr2w1W/p5nPpUsaHzJ2QsAqzHmuHp5XXd8aNRDwwhMcSiHnIn6XMM4erwdbb2Hc/699vXvAOarm2FWC2/0gtX7P7M+MfOhWnkE5swqm53s0OBSRn5ZHg79IhIErnYqk9Q16pxaeQRo4z1k+Ov1X/y/1qf/HOpZHZ0I6AWRtQNq2UCRg+fwlfXYb3NqaLmbnONTs4nAGk5npGi3qHOSzXJySdtOG99r9z38f3eda/+9MG/uFMRcEFj+kalF1YYjsAcAJsfJcfP2+t3hw9e3BhA43rF8Uveog2rDEaAtt17Sd5Rtff9wCMJ/e4FjxSLYf86qvlWqoxwe6uh6XADAec75z+NXta+nRcdZfwRRVh93LqvURY5TbTICtOG05aMcqOXvfzp52PV/wqQonp/+KBDcdPP9LAPcG+qH08QdmFziMwkYVPJ+ZxMcEZFFELBe072Ic2KQQ90MngCmCMARXkObTdvt6Xx/Pzl4GQCTX7XSvuY8ssoBfypzetzhPlMrKMdxU0bS1yXCb+bRVn6IOOQuBBV0in9IRHapoynPXNJG01bTZuf22/PrwSEUpGofs2dpde9NBGgK0Y0ANqwKltHfsfjNaQlE0rmR4DHGtY3ySmQPRmCdhGSYT73U2dQKV9E200bnuuz9lamiWz++/qGEAM8F6nIALJPsuS2ebYT8DoDnEuMvpw3VfCJwUmKyTN09GsCSPtk5MapNs1kP2uTcPqfyuu0EAi2/8ZZ1q6gAcap4K2frbitnRW9Ozc6UMvNYURy8XPckgNe3rEu6fX0IcF04lanhbp1kIaszAKxeH7SN98ypfjrAVJYlu/nJ91c2jviQG3JDYIqKlTPldgAslmT16CDXSDfppLz1vmkm51m/V/JQzTcCnoqa9ZPhUZ/xYe29AGY2yuYFAewN4J4EH1By3jLjX2sb/wbJDXPA5wSm+vpSlpzjfAAfATDHIKAi+pwpbo9yWOSpivydGxFfREq9CHg/E15E/h/LTjcdB2B9AxtemfXw4wAuSXRmspefn6xXPar3foKCgIkgiBW8WEL2gxHNDLAABp3+IYlt3uxVoN7/uZFVZ/6r6721X3KmLuUnyF75vw/AoR3bEEthNPKItpNLF6ntQ+rlT/f/p8SsbHzq/ZOCgIkgIGccd5Zf33na/nCD68wsC/lOAF/JIv0rpEiT+EL+cK8Dd4irpYUAT3qkuM8lt0mDXulsaStoM2g7aist2yNu3HtD28gZSdpKj0XFBmFe9HOmf259138P3yb9y7rpXvMtF2XUqOu4zs59AxcCOLKTwINr8Nx5X+X8+fwA3g6AU0PMzXBmts73+wQSNY3Cucj3X5gkwfogFQT21cNK36C4W2+Y7I22hDaFtoU2hgFzlcyDtG20cbR1TFpE20cbSFuY8t6jbrwHvScfzNR+SCHz1iBGjfs5MztxfY7pK3mm9ded0pXnALi4s/uTSU3u6Kzda3qs+t6TSysGXKk4yBTGyXXlcXU21d8/D+DRznIKbdVvOsfxiOl/A+ApqVsAcImBmQo141Jd1j5rTRm10aY6s1M1KE2O+6EGl2Ks6W5K9HJXOROqNCl7upfwLiMDrPVgrnETR0pZAsswVNe2awBY5ncjcxolgutCYINszZsyIb0UBrHJAGdPzG5Q5loRp7RjA1X0pM2TA+vyJOrXLAIHyE7JTkcmA/Sd5us6fFQ7OqVYESkWNzNV2Whp1rOJ8MIIMAOmHg6EQQwywFMQ9J0uGqszxQCqaEibD8wXHss5ZxeK7WwQzI7HjaGyE8KgbRnY05lu4ZtSLBmWFmXg2uzY0eu8KZXGExwBZp37XYty2rbj0f3bD36+EVyqI+kwtWpcUqb2lYk8uDNLe8pCMGpCoAgCTErDs+nSX2HQtAz8VxEBtXoNKzjp3K2UqkmleiSrjb60VYUR3a0hwBK6DysIUBDUoAxcAIA+0nVjumAmjGjSCeheaeL9jLMSqK4NQ4SDY+a1p2WrZKsbkIH/zeoxzB6hDtRCEtNI3toAqHL8aTp+8p2VGafUIr3qNCUEKEOUJdkSYVCXDNxk+ax/VWPAnND3S7FkWGqQASZ12bqqYOp3QqAHAcqSEgUpAKgjAGDK90V75C2ZfxkEaCZAihVSsViI6gPJaJAG2hQC7wfA3PchZVV9pY0n6ycs0pQAx3ofLgf8VoolwxJABp4E8I5YBV10mUeAWdlY1EaOWxiMKwNXAWC6fDUAPHur0wFSqnGUigVdVpY2CYGaEVgRwF8UBCgIGkMGzgUwW81yaq57ZuE6eQxQx3Ee+q3t4IMlRxczJ/Ei2CoCXLPlxi3ZDWFQVga+B2BGq4LfBN0HS7FkWErIAI+Uzt+EYOoeQqALAU7fchq3rAPQ9elipiJkXQo07O3eKiAkw1LAuF4MgHkl1IRAGwhwGpfTuXLqwmCYDPAEya5tCKjle7ISkkoJS7EGKdYPUsiaZVmBE6Gd07nHKQhQEDRABl4E8KFEdCH4MLnr9r4BwA5yDPrcd9DAoHCf4JKmDoXAeAjsDoDGXvZHGOQycFe2uX3N8cRKv54PwHlSLBkWAFIo2YOYEVhVeU1kpzq+6kwAc8csrNZo+6wi7KSVSwplTWPTpJdHmlX1NN1ZACaL2ilN0a9/1CzOcZtmA5IKBJ7Lzl3vWL9o6Q5CICgCHwfwd9mqpGwVj4auFFSK1NkkBOYCcIoUKwnFYqpMJl5REwIWEVgWwLWyVUnYquNTquYXgzJ+UhG2a8ViwoxkymPGoFCioRYEZgXwbQD/UiDg0l49pcJjtehNoU6XA3ClFMuVYj2oYzOFZF8X2UJgCwCs/JbvENerfSwuA7CULTH0Se22AJgLXkplFwMe72MWSC7xqAkBjwhwRovZ4FixUrbKLgYM5Lb0KKCWx0THQQei5EH2FOtSAG+2LHyiXQiUQGBJHW02GQAxcGMAp6XJEsLe9KVcFvipImwTCnY3ANZZVxMCKSLwbuUNMGGnOFvDlM8M3NSMIEDHQgejqbb4MOBZ2S+rJKYRTRKZdSIwC4DPa0NztHb6VgDvqlMA1Hd9CLBYxwFSrmiUizuhmhioHAAAAyxJREFUz84SpSxeH8vVsxAwicDCAE5TEbRobBV39+8HgAGamnEEmE6YgcCjmhFoRcG4L+NkACsblyORLwTqRoBLmCcCeEm2qhVbxVNInJFRGt+6Jb2F/jkjsBuAO6VcjSgXM6EdAeBNLfBatxQClhHgjMChWeGrp2WrGrFVnOpnxlHmbVBzjgBLeG4N4BopVy3K9Uj2BPMlAPM6lyMNTwjUjcA8WQ2U/QFQp7SfKTwGv+0c6Zuhbkaq/zgR2AjAz6RcQYzL7QB20ea+OAVdVJlGIJ+9ZEVMBQLjY8CjxxualggRHxQBrk8fAuA+KVgpA/MsgNMBvAcAZ1bUhIAQqA8B6tj7srwZrI5J3VMwUByDezu5YlSwpz75NN8zp4LWB8Bc9I9JwfoamFcAXAzgYwBY/lRNCAiB5hGg7jEL6oVKgNbXTjE44sbvYwCs1zx7dEfrCMwM4L0AzgDAsrQpR9s8wverzibKBawzVvQLAWcI8KQT69BfAeDVxG0VN06yYiwTLc3kjM8aTksIMNpmjW9mhEplZuDFjtP/os7utyR1uq0QKI8ATxB8LnvqvTyhZQLWguGD2lbag1ReYPSLcghwmYB7BnYH8GMADzmJuDnL8YvsCeIrAN4pRSonFLpaCESIAGcx185mML/QWbZjghsPM5n3dJ7ydwCwTIS4i6TEEGACD07BnQqAm00sKBmnylg3gU/46wCgsVATAkLALwLcRLg6gL07s5l/NWKrbgNwQpbD5RMAFvPLHo3MCwJvBLBBdqqAEepBAM4CcB2AZxpWOGbh4/E8OvrvZMsXewLYPNu5v6x27XsRNY1DCIyFABN1TclmMnfNNvUengUIFwC4Ocs/wCXAJh9knuzkZuFU/lc7zp6zF8onMhZ79ePYEHhDZ1fq9p3ykt/qpP/8UWea7srsqM+1HcfN1JQMGrixh0V0uKuVRY5uAHB1J4fBT7I1+pMAHN0JNvbobIBZSptgYmO96BECZhDgbMESmZ3ZtLPcyQcZ2hjaGtoc5k+hDaItok2ibaKNoq2izaLt4sMHbRltGk8O0cYx1TFtHkvrbgdgXQALmkHFEaH/H/UBIWWaWZzMAAAAAElFTkSuQmCC;" vertex="1" parent="1">
          <mxGeometry x="640" y="570" width="40" height="40" as="geometry" />
        </mxCell>
        <mxCell id="0rVqEpUzt8lyCxF0MDS7-9" value="" style="shape=mxgraph.signs.transportation.airplane_3;html=1;pointerEvents=1;fillColor=#000000;strokeColor=none;verticalLabelPosition=bottom;verticalAlign=top;align=center;rotation=90;" vertex="1" parent="1">
          <mxGeometry x="480" y="450" width="50" height="48" as="geometry" />
        </mxCell>
        <mxCell id="0rVqEpUzt8lyCxF0MDS7-11" value="" style="shape=mxgraph.signs.transportation.airplane_3;html=1;pointerEvents=1;fillColor=#000000;strokeColor=none;verticalLabelPosition=bottom;verticalAlign=top;align=center;rotation=-225;" vertex="1" parent="1">
          <mxGeometry x="600" y="490" width="50" height="48" as="geometry" />
        </mxCell>
      </root>
    </mxGraphModel>
  </diagram>
</mxfile>
